<svg width="264" height="223" viewBox="0 0 264 223" fill="none" xmlns="http://www.w3.org/2000/svg">
<g opacity="0.3">
<path d="M163.273 29.8934C162.91 29.7969 162.662 29.4053 162.711 28.9799C162.818 28.0496 162.962 27.1108 163.139 26.1893C163.226 25.741 163.619 25.4562 164.018 25.5532C164.023 25.5545 164.027 25.5557 164.032 25.5569C164.423 25.6607 164.67 26.0975 164.584 26.5404C164.416 27.4158 164.279 28.3076 164.178 29.1913C164.126 29.6461 163.755 29.9677 163.35 29.9091C163.324 29.9055 163.299 29.9001 163.273 29.8934ZM164.802 22.8665C164.774 22.8591 164.746 22.8496 164.718 22.8382C164.334 22.681 164.137 22.2043 164.277 21.7735C164.564 20.8888 164.888 20.009 165.24 19.1588C165.412 18.7429 165.85 18.5629 166.222 18.7554C166.592 18.9488 166.753 19.4426 166.581 19.8582C166.247 20.6663 165.939 21.5021 165.665 22.3431C165.536 22.7425 165.161 22.962 164.802 22.8665ZM167.67 16.3923C167.59 16.3711 167.511 16.3342 167.438 16.2812C167.095 16.0319 166.997 15.5179 167.219 15.1329C167.674 14.3438 168.165 13.5669 168.678 12.8242C168.929 12.4621 169.393 12.3971 169.716 12.6777C170.038 12.9589 170.096 13.4807 169.846 13.8428C169.358 14.5481 168.892 15.2855 168.46 16.035C168.286 16.338 167.965 16.4708 167.67 16.3923ZM171.755 10.7997C171.623 10.7646 171.498 10.688 171.396 10.5703C171.111 10.2415 171.118 9.71576 171.411 9.3962C172.012 8.74092 172.645 8.10688 173.293 7.51169C173.609 7.22203 174.075 7.27431 174.333 7.62897C174.592 7.98389 174.545 8.50706 174.229 8.79741C173.614 9.36251 173.012 9.96463 172.441 10.5876C172.253 10.7926 171.993 10.8629 171.755 10.7997ZM176.849 6.37105C176.663 6.32175 176.494 6.19228 176.387 5.9949C176.175 5.60323 176.285 5.09235 176.634 4.85392C177.348 4.36584 178.09 3.90504 178.84 3.48503C179.205 3.28003 179.649 3.44661 179.832 3.85732C180.014 4.26768 179.865 4.7662 179.5 4.97102C178.787 5.37024 178.081 5.80815 177.403 6.27193C177.23 6.39035 177.031 6.41948 176.849 6.37105ZM182.687 3.31827C182.447 3.25441 182.24 3.05695 182.156 2.77458C182.026 2.33974 182.234 1.86921 182.621 1.72298C183.414 1.42368 184.229 1.15876 185.042 0.936211C185.439 0.827613 185.839 1.10078 185.935 1.5464C186.032 1.99167 185.789 2.44098 185.392 2.54966C184.619 2.76133 183.846 3.01274 183.092 3.29722C182.956 3.34836 182.817 3.35266 182.687 3.31827ZM209.455 8.39548C209.355 8.36899 209.259 8.3189 209.173 8.24399C208.545 7.69792 207.887 7.17528 207.218 6.69097C206.875 6.44254 206.776 5.92867 206.997 5.54349C207.218 5.15796 207.675 5.04681 208.019 5.29524C208.723 5.80534 209.416 6.3557 210.078 6.93062C210.401 7.21133 210.46 7.73292 210.21 8.09547C210.027 8.36144 209.728 8.46811 209.455 8.39548ZM188.978 1.79561C188.68 1.71631 188.445 1.4321 188.413 1.07016C188.372 0.613747 188.669 0.206899 189.075 0.161109C189.908 0.0673348 190.754 0.0131233 191.591 5.2915e-05C191.999 -0.00424541 192.335 0.35997 192.34 0.818663C192.346 1.27709 192.02 1.65403 191.611 1.66052C190.817 1.6728 190.013 1.72429 189.222 1.81333C189.138 1.82272 189.056 1.81623 188.978 1.79561ZM203.95 4.64137C203.903 4.62874 203.855 4.61093 203.809 4.58698C203.088 4.21241 202.342 3.8682 201.594 3.5631C201.21 3.40652 201.012 2.93028 201.151 2.49931C201.291 2.06842 201.715 1.84342 202.098 2.00202C202.886 2.32316 203.67 2.68545 204.429 3.07932C204.8 3.27178 204.962 3.7653 204.79 4.18136C204.641 4.54584 204.285 4.73032 203.95 4.64137ZM195.415 1.88956C195.052 1.79316 194.805 1.40253 194.853 0.977614C194.904 0.522605 195.274 0.20058 195.679 0.257862C196.508 0.375759 197.344 0.535498 198.163 0.733046C198.168 0.734011 198.174 0.735417 198.179 0.73682C198.569 0.840507 198.816 1.27621 198.731 1.71877C198.646 2.16728 198.253 2.45282 197.853 2.3565C197.075 2.16913 196.281 2.01754 195.493 1.90561C195.467 1.90158 195.441 1.89632 195.415 1.88956Z" fill="white"/>
<path d="M213.255 12.3667C213.113 12.3291 212.98 12.2444 212.875 12.1133C212.621 11.7944 212.356 11.4765 212.089 11.1676C211.804 10.8391 211.81 10.3132 212.103 9.99362C212.396 9.6737 212.864 9.68046 213.149 10.0099C213.43 10.3346 213.708 10.6692 213.976 11.0045C214.248 11.3458 214.223 11.871 213.919 12.1769C213.732 12.3659 213.482 12.4273 213.255 12.3667Z" fill="white"/>
</g>
<g opacity="0.3">
<path d="M220.554 36.3169C220.207 36.2247 219.961 35.8607 219.988 35.4483C220.016 35.0214 220.036 34.5866 220.049 34.1563C220.062 33.6979 220.403 33.3382 220.811 33.353C221.221 33.3678 221.54 33.7514 221.526 34.2095C221.513 34.6626 221.492 35.1205 221.463 35.5699C221.433 36.0272 221.078 36.3708 220.671 36.3372C220.631 36.3339 220.592 36.3269 220.554 36.3169Z" fill="white"/>
<path d="M185.24 65.4508C184.909 65.3629 184.578 65.2684 184.247 65.1671C183.854 65.0465 183.621 64.5902 183.728 64.1477C183.836 63.7053 184.244 63.4431 184.636 63.5645C185.399 63.7979 186.17 63.9961 186.934 64.1551C187.335 64.2395 187.6 64.6718 187.526 65.1226C187.452 65.5737 187.066 65.8715 186.665 65.7879C186.192 65.6898 185.713 65.5762 185.24 65.4508ZM180.56 63.729C180.52 63.7183 180.48 63.7037 180.441 63.6849C179.682 63.323 178.927 62.9208 178.2 62.4895C177.839 62.2757 177.7 61.7734 177.891 61.3679C178.081 60.9623 178.529 60.8061 178.889 61.021C179.581 61.4306 180.297 61.8124 181.018 62.1566C181.394 62.3358 181.57 62.8232 181.41 63.2451C181.267 63.6232 180.905 63.8204 180.56 63.729ZM190.53 66.2839C190.19 66.1938 189.945 65.8431 189.962 65.4379C189.981 64.9797 190.327 64.6256 190.735 64.6466C191.515 64.6872 192.307 64.6906 193.09 64.6565C193.498 64.6396 193.842 64.9961 193.857 65.4542C193.873 65.9127 193.555 66.2985 193.147 66.3161C192.323 66.3518 191.488 66.3481 190.666 66.3056C190.62 66.3031 190.574 66.2957 190.53 66.2839ZM175.034 60.2419C174.942 60.2177 174.854 60.1732 174.773 60.108C174.104 59.568 173.447 58.9893 172.821 58.3881C172.511 58.0901 172.474 57.5662 172.739 57.2177C173.005 56.8689 173.471 56.8278 173.782 57.1262C174.376 57.697 175 58.2465 175.635 58.7593C175.967 59.0267 176.043 59.5457 175.805 59.918C175.624 60.1996 175.316 60.317 175.034 60.2419ZM196.85 65.8228C196.572 65.7489 196.345 65.4961 196.292 65.1597C196.221 64.7081 196.489 64.277 196.891 64.1968C197.66 64.0437 198.433 63.8512 199.19 63.6251C199.585 63.5072 199.99 63.7708 200.095 64.2142C200.2 64.6573 199.965 65.1119 199.57 65.2297C198.773 65.4679 197.959 65.6706 197.149 65.8319C197.047 65.8523 196.945 65.8481 196.85 65.8228ZM202.928 63.815C202.705 63.756 202.51 63.5822 202.415 63.3274C202.258 62.9043 202.435 62.4179 202.812 62.2409C203.535 61.9015 204.253 61.524 204.946 61.119C205.308 60.9069 205.755 61.065 205.943 61.4724C206.132 61.8793 205.991 62.3805 205.628 62.5923C204.898 63.0186 204.143 63.4159 203.383 63.7729C203.233 63.8432 203.074 63.854 202.928 63.815ZM208.471 60.3669C208.302 60.322 208.146 60.2104 208.038 60.0383C207.802 59.6641 207.881 59.1459 208.215 58.8811C208.855 58.3729 209.482 57.829 210.08 57.264C210.393 56.969 210.859 57.0138 211.122 57.3653C211.385 57.7164 211.344 58.2399 211.032 58.5352C210.402 59.1295 209.742 59.7023 209.068 60.237C208.888 60.38 208.67 60.4198 208.471 60.3669ZM213.212 55.6434C213.095 55.6123 212.983 55.5486 212.888 55.4515C212.585 55.1441 212.561 54.6192 212.835 54.279C213.36 53.6263 213.866 52.9412 214.339 52.2423C214.586 51.8774 215.051 51.8067 215.375 52.0838C215.7 52.3614 215.763 52.8824 215.516 53.2473C215.018 53.9835 214.485 54.7051 213.932 55.3922C213.744 55.625 213.466 55.7109 213.212 55.6434ZM216.916 49.8639C216.85 49.8464 216.786 49.8181 216.724 49.779C216.368 49.5542 216.242 49.0479 216.442 48.6484C216.825 47.8835 217.184 47.0905 217.509 46.2903C217.679 45.8731 218.118 45.6902 218.489 45.8798C218.86 46.0702 219.024 46.5628 218.854 46.9801C218.512 47.8224 218.134 48.6575 217.731 49.4625C217.565 49.7925 217.229 49.9468 216.916 49.8639ZM219.398 43.316C219.383 43.3121 219.368 43.3075 219.354 43.3026C218.963 43.1701 218.741 42.7068 218.859 42.2679C219.026 41.6483 219.177 41.0156 219.31 40.3868C219.358 40.1593 219.403 39.9314 219.446 39.7039C219.532 39.2553 219.925 38.9694 220.324 39.0654C220.73 39.1536 220.978 39.6023 220.892 40.0506C220.847 40.2902 220.799 40.5294 220.749 40.7689C220.609 41.4302 220.45 42.0961 220.275 42.7477C220.161 43.1702 219.775 43.4162 219.398 43.316Z" fill="white"/>
<path d="M170.315 55.4582C170.172 55.4203 170.037 55.3343 169.933 55.2017C169.667 54.8656 169.402 54.5167 169.147 54.1649C168.888 53.8096 168.935 53.2865 169.252 52.9966C169.568 52.7067 170.033 52.759 170.292 53.1145C170.535 53.4486 170.786 53.7801 171.038 54.0993C171.309 54.4419 171.282 54.9667 170.976 55.2713C170.789 55.4579 170.541 55.5183 170.315 55.4582Z" fill="white"/>
</g>
<path d="M173.259 46.3438C173.323 46.4927 173.465 46.5793 173.611 46.5595L177.786 45.9931C179.024 47.705 180.515 49.2074 182.224 50.4194L182.219 55.1395C182.219 55.3051 182.312 55.4525 182.452 55.5066L187.218 57.3593C187.358 57.4134 187.512 57.3623 187.603 57.2321L190.197 53.5182C192.208 53.7517 194.206 53.6053 196.122 53.1191L199.092 56.4626C199.196 56.5798 199.355 56.6099 199.487 56.5375L204.024 54.0618C204.157 53.9894 204.234 53.8305 204.217 53.6661L203.712 48.9771C205.236 47.5862 206.574 45.9121 207.653 43.9929L211.856 43.998C212.003 43.9982 212.134 43.8933 212.183 43.7368L213.832 38.3829C213.88 38.2265 213.835 38.0528 213.719 37.9507L210.412 35.0373C210.62 32.7793 210.49 30.5349 210.057 28.3834L213.034 25.0471C213.138 24.9302 213.165 24.7517 213.1 24.6029L210.896 19.5071C210.832 19.358 210.69 19.2715 210.544 19.2914L206.369 19.8578C205.131 18.1458 203.64 16.6434 201.931 15.4315L201.936 10.7112C201.936 10.5457 201.843 10.3982 201.703 10.3441L196.936 8.4915C196.797 8.43729 196.642 8.48843 196.551 8.6187L193.958 12.3325C191.947 12.0989 189.949 12.2455 188.033 12.7316L185.063 9.38819C184.959 9.2709 184.8 9.24081 184.667 9.31318L180.13 11.789C179.998 11.8614 179.921 12.0203 179.938 12.1846L180.443 16.8736C178.918 18.2645 177.581 19.9386 176.502 21.8578L172.299 21.8527C172.152 21.8525 172.02 21.9574 171.972 22.114L170.323 27.4678C170.275 27.6243 170.32 27.7978 170.436 27.9001L173.743 30.8134C173.535 33.0713 173.665 35.3158 174.098 37.4673L171.121 40.8035C171.017 40.9205 170.99 41.0988 171.054 41.2478L173.259 46.3438Z" fill="white"/>
<path d="M190.907 38.4669C188.502 37.8282 186.808 35.2835 187.026 32.4373C187.266 29.3085 189.727 26.9826 192.512 27.2517C193.862 27.3818 195.085 28.095 195.957 29.2587C196.829 30.4225 197.245 31.8981 197.129 33.4137C196.889 36.5425 194.428 38.8684 191.642 38.5992C191.391 38.5748 191.146 38.5303 190.907 38.4669ZM192.98 28.6777C192.794 28.6284 192.604 28.5939 192.411 28.5752C190.275 28.3687 188.388 30.1525 188.204 32.5509C188.02 34.9496 189.608 37.0699 191.744 37.2757C193.88 37.4823 195.767 35.6985 195.951 33.3C196.04 32.1378 195.72 31.0065 195.052 30.1141C194.508 29.3889 193.787 28.8919 192.98 28.6777Z" fill="#BDD0FB"/>
<path d="M189.323 46.4982C188.91 46.3885 188.5 46.2548 188.093 46.0968C187.965 46.0472 187.838 45.9951 187.711 45.9408C187.087 45.6728 186.483 45.3494 185.909 44.9758C185.901 44.9707 185.893 44.9657 185.885 44.9607C185.863 44.9461 185.841 44.9315 185.819 44.9167C185.776 44.8883 185.733 44.8592 185.69 44.8302C185.578 44.7537 185.527 44.6066 185.556 44.4702C185.563 44.437 185.574 44.4045 185.591 44.3739C185.675 44.217 185.857 44.1677 185.997 44.2624C186.715 44.7521 187.486 45.158 188.286 45.4689C192.263 47.0152 196.482 46.0401 199.559 43.3017C201.27 41.7787 202.627 39.71 203.393 37.2257C203.527 36.7901 203.641 36.35 203.734 35.9074C204.36 32.929 204.059 29.825 202.852 27.0352C201.466 23.8306 199.051 21.424 196.054 20.2589C189.862 17.8535 183.088 21.552 180.947 28.5022C180.815 28.9307 180.703 29.3652 180.611 29.8036C180.211 31.7035 180.186 33.6805 180.543 35.5928C180.553 35.6422 180.552 35.6913 180.542 35.7374C180.516 35.8586 180.431 35.9588 180.315 35.986C180.155 36.0232 179.998 35.9092 179.965 35.7291C179.589 33.7214 179.616 31.6457 180.035 29.6511C180.132 29.191 180.25 28.735 180.388 28.2851C182.636 20.9881 189.752 17.1072 196.247 19.6311C199.394 20.8542 201.928 23.3807 203.384 26.7449C204.651 29.6737 204.968 32.9323 204.31 36.0591C204.212 36.5237 204.093 36.9856 203.952 37.4428C202.863 40.9776 200.613 43.8244 197.618 45.4588C195.01 46.8823 192.108 47.2377 189.323 46.4982Z" fill="#BDD0FB"/>
<g opacity="0.3">
<path d="M134.24 44.6674C134.048 44.6163 133.9 44.4284 133.889 44.1955C133.868 43.7608 133.859 43.3194 133.862 42.8836C133.863 42.6005 134.069 42.3726 134.321 42.3742C134.574 42.3749 134.777 42.6073 134.775 42.8905C134.773 43.3057 134.781 43.7264 134.801 44.1412C134.815 44.4238 134.621 44.6652 134.369 44.6807C134.325 44.6832 134.281 44.6784 134.24 44.6674Z" fill="white"/>
<path d="M134.375 40.7254C134.15 40.6656 133.997 40.4227 134.028 40.1598C134.115 39.4165 134.237 38.6697 134.39 37.9407C134.422 37.7872 134.456 37.6336 134.492 37.4798C134.555 37.2054 134.815 37.0547 135.048 37.1115C135.292 37.1824 135.439 37.4622 135.376 37.7363C135.342 37.8832 135.31 38.0301 135.279 38.1767C135.132 38.8722 135.016 39.5844 134.933 40.2932C134.9 40.5742 134.671 40.7717 134.421 40.7351C134.405 40.7324 134.39 40.7294 134.375 40.7254ZM135.563 35.5705C135.542 35.5649 135.521 35.5578 135.501 35.5488C135.266 35.4448 135.151 35.147 135.243 34.8834C135.539 34.0378 135.885 33.2053 136.27 32.4097C136.391 32.1607 136.669 32.07 136.889 32.2042C137.111 32.3397 137.193 32.6507 137.072 32.8996C136.705 33.6588 136.375 34.4529 136.093 35.2593C136.008 35.4994 135.781 35.6284 135.563 35.5705ZM137.829 30.8934C137.773 30.8784 137.718 30.851 137.668 30.811C137.463 30.6459 137.416 30.3253 137.563 30.0952C138.035 29.3583 138.552 28.6461 139.102 27.9795C139.273 27.7713 139.561 27.7588 139.747 27.9517C139.932 28.1439 139.943 28.4685 139.772 28.6762C139.248 29.3121 138.755 29.9905 138.305 30.6936C138.194 30.8673 138.004 30.9398 137.829 30.8934ZM141.049 26.9848C140.957 26.9603 140.872 26.9036 140.806 26.8166C140.643 26.6 140.668 26.2762 140.861 26.0937C141.479 25.5077 142.136 24.9601 142.812 24.4656C143.024 24.3113 143.307 24.3792 143.444 24.6159C143.582 24.8531 143.522 25.1707 143.31 25.3255C142.666 25.7966 142.039 26.3193 141.449 26.8779C141.334 26.9869 141.185 27.0209 141.049 26.9848ZM145.022 24.0782C144.893 24.0441 144.779 23.9479 144.716 23.8041C144.606 23.5499 144.7 23.2429 144.926 23.1182C145.652 22.7198 146.407 22.3676 147.17 22.072C147.409 21.979 147.669 22.1216 147.751 22.3894C147.833 22.6572 147.707 22.9493 147.468 23.0415C146.74 23.3237 146.02 23.6594 145.327 24.04C145.229 24.094 145.121 24.1045 145.022 24.0782ZM149.502 22.3428C149.335 22.2986 149.198 22.1505 149.16 21.9499C149.107 21.6731 149.265 21.401 149.512 21.3419C150.302 21.1536 151.111 21.0189 151.915 20.9421C152.167 20.9189 152.387 21.1277 152.408 21.4098C152.43 21.6919 152.243 21.9403 151.992 21.9642C151.226 22.0375 150.455 22.1658 149.701 22.3454C149.633 22.3618 149.565 22.3598 149.502 22.3428ZM154.222 21.8904C154.013 21.8351 153.862 21.6204 153.871 21.3716C153.881 21.0886 154.093 20.8681 154.345 20.8789C155.15 20.9141 155.964 21.0067 156.763 21.1537C157.012 21.2043 157.181 21.4638 157.14 21.7431C157.099 22.0226 156.865 22.2119 156.616 22.1663C155.853 22.0255 155.077 21.9374 154.309 21.9039C154.279 21.9026 154.25 21.8978 154.222 21.8904ZM161.134 23.6592C161.108 23.6523 161.083 23.6429 161.057 23.6307C160.446 23.3341 159.81 23.0699 159.166 22.8454C159.069 22.8108 158.973 22.7781 158.877 22.7469C158.635 22.6671 158.496 22.3827 158.566 22.1108C158.637 21.8383 158.894 21.6749 159.133 21.7619C159.235 21.7958 159.337 21.8302 159.439 21.8665C160.112 22.1013 160.779 22.3782 161.42 22.6894C161.651 22.8019 161.758 23.1035 161.658 23.3635C161.569 23.595 161.345 23.7153 161.134 23.6592Z" fill="white"/>
</g>
<g opacity="0.3">
<path d="M149.31 64.6398C149.068 64.5754 148.916 64.3034 148.97 64.0291C149.025 63.7529 149.269 63.5784 149.515 63.6401C150.256 63.8256 151.013 63.9619 151.766 64.045C152.015 64.0751 152.201 64.3235 152.176 64.6056C152.151 64.8877 151.927 65.0934 151.677 65.0659C150.887 64.9781 150.093 64.8358 149.316 64.6414C149.314 64.6409 149.312 64.6403 149.31 64.6398ZM147.065 63.9164C147.049 63.9121 147.033 63.9069 147.017 63.9007C146.268 63.6038 145.527 63.2526 144.814 62.8571C144.588 62.7313 144.496 62.4241 144.608 62.1703C144.719 61.9159 144.994 61.8134 145.219 61.9375C145.899 62.315 146.606 62.65 147.321 62.9336C147.559 63.0277 147.684 63.3207 147.6 63.5876C147.521 63.8374 147.289 63.9758 147.065 63.9164ZM153.95 65.1515C153.753 65.0992 153.604 64.9031 153.599 64.6651C153.593 64.3824 153.792 64.1471 154.044 64.14C154.803 64.1183 155.568 64.045 156.316 63.9211C156.566 63.881 156.798 64.0737 156.834 64.3541C156.871 64.6341 156.698 64.8949 156.449 64.9362C155.664 65.0659 154.863 65.1428 154.067 65.1651C154.027 65.1661 153.987 65.1614 153.95 65.1515ZM142.885 61.5907C142.834 61.5773 142.785 61.5539 142.739 61.5201C142.074 61.0292 141.43 60.4871 140.825 59.9088C140.632 59.7255 140.609 59.4018 140.772 59.1858C140.935 58.9708 141.224 58.9444 141.416 59.1272C141.993 59.6784 142.607 60.195 143.241 60.6633C143.452 60.819 143.51 61.1372 143.371 61.3736C143.263 61.5584 143.066 61.6389 142.885 61.5907ZM158.562 64.3883C158.405 64.3465 158.272 64.212 158.227 64.0249C158.16 63.7514 158.303 63.4693 158.546 63.3944C159.277 63.1696 160.003 62.8921 160.704 62.5689C160.938 62.4611 161.204 62.587 161.3 62.8491C161.396 63.1112 161.284 63.4108 161.05 63.5182C160.315 63.8565 159.554 64.1479 158.788 64.3839C158.711 64.4073 158.634 64.4074 158.562 64.3883ZM162.877 62.4048C162.756 62.3727 162.648 62.2863 162.583 62.1558C162.46 61.9086 162.539 61.596 162.759 61.4579C163.422 61.0417 164.068 60.5767 164.68 60.0763C164.884 59.9092 165.169 59.9599 165.318 60.1886C165.466 60.4174 165.421 60.738 165.218 60.9046C164.577 61.4296 163.899 61.9171 163.204 62.3533C163.101 62.4184 162.984 62.4333 162.877 62.4048ZM166.644 59.3172C166.56 59.2947 166.48 59.2451 166.416 59.1681C166.244 58.9613 166.254 58.6366 166.438 58.4432C166.993 57.8614 167.521 57.2359 168.007 56.5843C168.169 56.3679 168.457 56.3389 168.65 56.521C168.844 56.703 168.869 57.0262 168.707 57.2435C168.197 57.9264 167.643 58.5827 167.061 59.1933C166.945 59.3148 166.788 59.3553 166.644 59.3172Z" fill="white"/>
<path d="M139.314 58.1822C139.229 58.1594 139.148 58.1087 139.084 58.0304C138.819 57.7074 138.562 57.3741 138.319 57.0399C138.159 56.8205 138.188 56.4973 138.384 56.3181C138.579 56.14 138.866 56.1721 139.026 56.391C139.258 56.7098 139.503 57.0277 139.756 57.3361C139.927 57.5446 139.914 57.8691 139.729 58.0607C139.613 58.1803 139.457 58.2201 139.314 58.1822Z" fill="white"/>
</g>
<path d="M141.041 51.8331C141.084 51.9327 141.179 51.9907 141.277 51.9774L144.071 51.5984C144.899 52.7439 145.897 53.7493 147.04 54.5603L147.037 57.7188C147.037 57.8296 147.099 57.9283 147.193 57.9645L150.382 59.2043C150.476 59.2405 150.579 59.2063 150.64 59.1192L152.376 56.6341C153.721 56.7903 155.058 56.6923 156.34 56.3671L158.328 58.6044C158.397 58.6827 158.504 58.7029 158.592 58.6545L161.628 56.9978C161.717 56.9493 161.769 56.843 161.757 56.733L161.419 53.5953C162.439 52.6646 163.334 51.5444 164.056 50.2601L166.869 50.2635C166.967 50.2636 167.055 50.1935 167.087 50.0888L168.191 46.5061C168.223 46.4013 168.193 46.2852 168.115 46.2168L165.903 44.2673C166.042 42.7564 165.955 41.2546 165.665 39.8149L167.657 37.5824C167.727 37.5041 167.745 37.3847 167.702 37.2852L166.227 33.8752C166.184 33.7756 166.089 33.7177 165.991 33.7309L163.197 34.1099C162.369 32.9644 161.371 31.959 160.228 31.148L160.231 27.9895C160.231 27.8787 160.168 27.7801 160.075 27.7438L156.885 26.5041C156.792 26.4679 156.689 26.5021 156.628 26.5892L154.892 29.0743C153.547 28.9181 152.21 29.0161 150.928 29.3413L148.94 27.1041C148.871 27.0256 148.764 27.0055 148.676 27.0539L145.64 28.7106C145.551 28.7591 145.499 28.8654 145.511 28.9754L145.848 32.1131C144.829 33.0438 143.933 34.164 143.211 35.4483L140.399 35.4449C140.301 35.4447 140.213 35.515 140.181 35.6197L139.077 39.2022C139.044 39.307 139.075 39.4231 139.152 39.4915L141.365 41.441C141.226 42.9519 141.313 44.4537 141.603 45.8934L139.611 48.1259C139.541 48.2042 139.523 48.3236 139.566 48.4232L141.041 51.8331Z" fill="white"/>
<path d="M152.832 46.6278C152.115 46.4374 151.474 45.9959 150.991 45.3516C150.398 44.5589 150.114 43.5536 150.193 42.5212C150.356 40.3908 152.033 38.8063 153.93 38.9891C155.83 39.1766 157.238 41.056 157.075 43.1868C156.996 44.2193 156.564 45.1553 155.858 45.8222C155.152 46.4894 154.257 46.808 153.338 46.7188C153.166 46.7021 152.997 46.6716 152.832 46.6278ZM154.22 40.0774C154.101 40.0456 153.978 40.0233 153.852 40.011C152.456 39.8765 151.223 41.042 151.103 42.6095C151.045 43.3686 151.253 44.1084 151.69 44.6912C152.127 45.2745 152.74 45.6308 153.416 45.6971C154.092 45.7624 154.751 45.5282 155.27 45.0377C155.789 44.5467 156.107 43.8583 156.165 43.0987C156.275 41.6728 155.425 40.3974 154.22 40.0774Z" fill="#BDD0FB"/>
<path d="M151.723 52.2164C151.442 52.1417 151.162 52.0503 150.883 51.9423C150.33 51.7274 149.795 51.4491 149.293 51.1141C149.271 51.0988 149.248 51.0836 149.226 51.0684C149.052 50.9502 148.974 50.7231 149.018 50.5125C149.029 50.4614 149.047 50.4111 149.072 50.3639C149.203 50.1218 149.484 50.046 149.7 50.1918C150.166 50.5096 150.664 50.7721 151.181 50.9728L151.182 50.9729C151.21 50.9841 151.239 50.9947 151.267 51.0053C152.495 51.4678 153.779 51.569 155.021 51.3226C155.696 51.1888 156.358 50.952 156.993 50.6136C156.998 50.6109 157.003 50.6081 157.008 50.6054C157.024 50.5967 157.04 50.5885 157.055 50.5798C158.902 49.5717 160.29 47.8163 160.961 45.6367C161.048 45.3547 161.122 45.07 161.182 44.7834C161.588 42.8553 161.392 40.8458 160.611 39.0395C159.713 36.9649 158.15 35.4074 156.21 34.6533C154.27 33.9005 152.183 34.0389 150.336 35.0464C148.489 36.0544 147.102 37.8099 146.43 39.9896C146.345 40.2668 146.272 40.5482 146.213 40.8318C145.954 42.062 145.938 43.3417 146.169 44.5795C146.183 44.6558 146.182 44.7316 146.167 44.8026C146.127 44.9898 145.995 45.1446 145.816 45.1866C145.569 45.2441 145.327 45.0676 145.275 44.7897C145.016 43.4046 145.035 41.9726 145.324 40.5967C145.391 40.279 145.472 39.9644 145.567 39.6542C146.319 37.2153 147.871 35.2515 149.937 34.1237C152.004 32.9964 154.337 32.8378 156.508 33.6837C158.68 34.5274 160.428 36.2701 161.432 38.5916C162.306 40.612 162.525 42.8603 162.071 45.0175C162.004 45.3376 161.921 45.6565 161.824 45.9719C160.37 50.6931 155.962 53.3421 151.723 52.2164Z" fill="#BDD0FB"/>
<path d="M66.3467 72.0227V187.769C66.3467 197.291 73.1023 205.078 81.5771 205.323C119.218 206.413 216.166 209.057 251.998 208.463C258.156 208.361 263.145 202.826 263.323 195.911C264.014 169.022 265.136 104.361 260.983 74.3423C260.109 68.0206 255.358 63.2933 249.665 63.0888C218.126 61.9556 113.27 58.3574 77.4557 59.2608C71.2788 59.4165 66.3467 65.0834 66.3467 72.0227Z" fill="url(#paint0_linear_230_2733)"/>
<path d="M72.8135 71.4593V181.427C72.8135 186.986 76.7868 191.516 81.7359 191.599L246.843 194.371C251.75 194.454 255.772 190.02 255.79 184.508L256.125 75.5235C256.138 71.5826 253.342 68.3536 249.834 68.2578L79.9688 63.616C76.0454 63.5088 72.8135 67.0516 72.8135 71.4593Z" fill="#7D97F4"/>
<path d="M257.295 198.921C257.292 198.921 257.29 198.921 257.288 198.921L72.807 194.727C72.633 194.723 72.4947 194.561 72.4981 194.365C72.5019 194.17 72.6484 194.016 72.8199 194.018L257.301 198.213C257.475 198.217 257.613 198.379 257.61 198.574C257.606 198.767 257.466 198.921 257.295 198.921Z" fill="#7D97F4"/>
<path d="M246.847 188.468H81.7253C78.8513 188.468 76.5215 185.573 76.5215 182.001V76.4941C76.5215 72.8896 78.897 69.9835 81.7971 70.04L247.149 73.2597C249.668 73.3087 251.689 75.8603 251.689 78.991V182.45C251.689 185.774 249.521 188.468 246.847 188.468Z" fill="#BDD0FB"/>
<path opacity="0.79" d="M244.004 169.231H86.5435C83.8028 169.231 81.5811 166.834 81.5811 163.877V76.5163C81.5811 73.5317 83.8463 71.1255 86.6119 71.1723L244.293 73.8382C246.695 73.8788 248.622 75.9915 248.622 78.5838V164.248C248.622 167 246.555 169.231 244.004 169.231Z" fill="white"/>
<path d="M104.412 115.168C104.556 114.093 103.856 112.483 103.501 111.751C105.007 106.839 110.757 100.509 116.325 99.0174C116.326 96.9365 113.679 95.5248 113.469 94.0761C109.57 96.9277 104.508 98.3852 101.964 111.596C100.806 112.953 100.63 115.384 100.951 115.976C101.099 116.249 104.221 116.596 104.412 115.168Z" fill="url(#paint1_linear_230_2733)"/>
<path d="M90.7762 132.431C90.7762 132.431 89.3526 130.937 87.1356 130.51C86.6134 130.409 86.1189 130.814 86.0241 131.4L84.4936 140.853C84.4219 141.295 84.8992 141.579 85.1843 141.263C86.5924 139.702 89.2509 136.613 90.4837 134.238L90.7762 132.431Z" fill="url(#paint2_linear_230_2733)"/>
<path d="M93.5077 132.637L90.2241 132.347C89.8568 132.315 89.5256 132.62 89.5027 133.033C89.4888 133.284 89.507 133.591 89.5959 133.943C89.6805 134.276 89.9428 134.517 90.2499 134.554L94.1954 135.032L93.5077 132.637Z" fill="url(#paint3_linear_230_2733)"/>
<path d="M124.631 117.008C126.256 115.974 120.968 146.155 111.174 144.42C106.572 143.604 91.2627 135.011 91.2627 135.011L92.4208 132.263C92.4208 132.263 104.788 132.35 109.686 136.458C114.817 134.337 112.679 119.122 112.679 119.122L124.631 117.008Z" fill="url(#paint4_linear_230_2733)"/>
<path d="M142.396 164.829C142.396 164.829 142.424 167.017 143.687 169.108C143.984 169.6 144.587 169.719 145.029 169.39L152.155 164.075C152.489 163.826 152.34 163.244 151.939 163.232C149.962 163.174 146.137 163.164 143.758 163.813L142.396 164.829Z" fill="url(#paint5_linear_230_2733)"/>
<path d="M140.634 162.475L142.725 165.334C142.959 165.654 143.384 165.71 143.665 165.442C143.836 165.28 144.02 165.052 144.184 164.737C144.339 164.437 144.312 164.058 144.123 163.783L141.694 160.258L140.634 162.475Z" fill="url(#paint6_linear_230_2733)"/>
<path d="M113.186 116.846C113.186 116.846 108.045 126.222 130.189 139.601C129.31 146.33 140.902 163.574 140.902 163.574C142.145 163.91 143.089 163.43 143.882 162.541C143.882 162.541 137.172 143.668 135.466 137.535C134.666 134.662 125.017 121.463 123.269 117.71C114.472 116.676 113.186 116.846 113.186 116.846Z" fill="url(#paint7_linear_230_2733)"/>
<path d="M135.358 94.8535L131.439 101.625C133.262 105.613 135.287 107.815 137.313 108.862C137.675 106.377 138.967 104.314 139.916 103.089C136.302 100.78 135.358 94.8535 135.358 94.8535Z" fill="url(#paint8_linear_230_2733)"/>
<path d="M148.821 101.873C144.809 104.54 141.942 104.384 139.915 103.089C138.966 104.314 137.674 106.377 137.312 108.862C143.752 112.19 150.2 103.814 150.2 103.814L148.821 101.873Z" fill="url(#paint9_linear_230_2733)"/>
<path d="M149.04 103.033C149.04 103.033 147.957 100.913 149.514 99.2841C149.514 99.2841 150.017 98.6407 150.568 99.5861C150.568 99.5861 152.244 97.8775 152.702 98.5658C153.16 99.254 154.375 100.958 153.188 102.902C151.989 104.867 149.569 103.991 149.04 103.033Z" fill="url(#paint10_linear_230_2733)"/>
<path d="M150.686 101.895C150.52 101.895 150.342 101.861 150.184 101.755C150.029 101.652 149.833 101.437 149.784 101.001C149.767 100.857 149.858 100.725 149.986 100.707C150.113 100.688 150.232 100.79 150.248 100.934C150.279 101.207 150.386 101.279 150.421 101.302C150.549 101.388 150.736 101.378 150.887 101.346L150.52 100.04C150.481 99.9012 150.549 99.7535 150.673 99.7099C150.796 99.6661 150.928 99.7431 150.966 99.8816L151.406 101.448C151.443 101.579 151.383 101.721 151.269 101.771C151.227 101.79 150.975 101.895 150.686 101.895Z" fill="#F79E6D"/>
<path d="M121.736 90.7107C118.94 90.8705 113.198 92.697 110.343 95.6487C109.564 97.6007 110.703 100.67 112.262 101.286C113.161 100.338 116.499 99.5734 118.318 99.0676C116.746 105.665 115.48 110.557 113.216 116.4C113.075 116.764 113.235 117.187 113.569 117.318C115.318 118.003 120.486 119.638 124.631 117.008L133.816 102.236C134.804 100.647 135.453 98.8245 135.714 96.909C135.93 95.3271 135.112 93.7958 133.766 93.2714C130.878 92.1468 125.822 90.4774 121.736 90.7107Z" fill="url(#paint11_linear_230_2733)"/>
<path d="M127.94 86.7872L125.54 92.0627C125.394 92.3845 125.437 92.7735 125.652 93.0424C126.234 93.7694 127.606 94.95 129.993 94.1038C130.256 94.0106 130.446 93.7507 130.486 93.444L131.111 88.6528L127.94 86.7872Z" fill="url(#paint12_linear_230_2733)"/>
<path d="M131.527 79.7277C131.595 79.8245 133.907 87.5597 133.907 87.5597L129.947 88.9487L126.786 81.983C126.786 81.983 130.387 78.1063 131.527 79.7277Z" fill="url(#paint13_linear_230_2733)"/>
<path d="M128.35 82.9757L129.758 86.7889C129.776 86.8378 129.8 86.8826 129.829 86.9243C130.007 87.1788 130.679 88.004 131.389 87.1811C132.033 86.4344 132.63 85.7636 133.205 85.6136C133.463 85.5463 133.724 85.7095 133.808 85.9915C134.018 86.6944 134.465 88.288 134.665 89.7392C134.706 90.0336 134.536 90.3122 134.279 90.3835C133.503 90.5983 131.854 90.9999 130.461 90.974C130.272 90.9705 130.1 90.8537 130.013 90.6659C129.585 89.7502 128.276 86.9723 127.805 86.2616C127.362 85.5946 126.36 85.6748 125.941 85.7421C125.804 85.7642 125.666 85.7225 125.557 85.6264C125.172 85.2863 124.427 84.4036 125.359 83.2366C125.554 82.9923 125.53 82.6188 125.307 82.4072C124.863 81.9859 124.372 81.2208 125.03 80.1953C125.698 79.1528 126.652 79.2546 127.243 79.4569C127.482 79.5388 127.732 79.412 127.848 79.1634C127.914 79.0219 128.035 78.9104 128.256 78.9184C128.553 78.929 128.788 78.637 128.767 78.3042C128.726 77.6648 128.891 76.8438 129.863 76.4384C131.587 75.719 132.773 77.556 132.949 78.9697C133.126 80.3834 131.216 81.044 130.074 81.0171C129.205 80.9967 128.609 81.9989 128.373 82.4805C128.298 82.6329 128.29 82.8148 128.35 82.9757Z" fill="url(#paint14_linear_230_2733)"/>
<path d="M128.33 87.6443C128.33 87.6443 127.929 85.1958 127.01 85.1303C126.091 85.0649 125.242 85.9616 126.217 87.2906C127.429 88.9436 128.33 87.6443 128.33 87.6443Z" fill="url(#paint15_linear_230_2733)"/>
<path d="M188.697 93.1263L181.239 100.587C178.726 104.071 177.75 107.04 177.716 109.544C179.886 108.912 182.088 109.407 183.469 109.887C185.435 105.783 188.697 93.1263 188.697 93.1263Z" fill="url(#paint16_linear_230_2733)"/>
<path d="M188.056 118.547C184.263 115.502 183.233 112.493 183.469 109.887C182.088 109.407 179.886 108.912 177.716 109.544C177.606 117.505 187.032 120.748 187.032 120.748L188.056 118.547Z" fill="url(#paint17_linear_230_2733)"/>
<path d="M187.2 119.24C187.2 119.24 188.49 117.271 190.445 118.213C190.445 118.213 191.172 118.469 190.625 119.418C190.625 119.418 192.693 120.449 192.317 121.198C191.942 121.947 191.045 123.883 188.982 123.449C186.897 123.01 186.633 120.17 187.2 119.24Z" fill="url(#paint18_linear_230_2733)"/>
<path d="M188.791 120.472C188.724 120.302 188.681 120.105 188.702 119.899C188.724 119.698 188.82 119.411 189.156 119.184C189.266 119.109 189.41 119.149 189.477 119.273C189.543 119.396 189.508 119.559 189.397 119.634C189.188 119.776 189.172 119.915 189.167 119.961C189.149 120.126 189.233 120.315 189.319 120.457L190.236 119.552C190.333 119.456 190.481 119.467 190.566 119.576C190.652 119.685 190.642 119.851 190.545 119.947L189.447 121.031C189.354 121.123 189.215 121.118 189.127 121.021C189.096 120.985 188.908 120.769 188.791 120.472Z" fill="#F79E6D"/>
<path d="M163.316 116.916C163.298 115.829 162.368 114.373 161.909 113.718C161.85 112.259 165.927 103.822 169.785 100.496C169.476 98.444 167.017 98.4161 166.594 97.0273C163.55 100.496 161.091 103.62 160.37 113.855C159.431 115.41 159.62 117.84 160.024 118.363C160.211 118.605 163.34 118.36 163.316 116.916Z" fill="url(#paint19_linear_230_2733)"/>
<path d="M161.005 144.403C161.005 144.403 159.333 143.279 157.086 143.387C156.557 143.412 156.149 143.925 156.167 144.52L156.444 154.123C156.457 154.573 156.977 154.736 157.197 154.36C158.28 152.501 160.299 148.852 161.059 146.239L161.005 144.403Z" fill="url(#paint20_linear_230_2733)"/>
<path d="M163.404 142.988L160.263 144.102C159.911 144.227 159.706 144.649 159.823 145.042C159.894 145.28 160.013 145.558 160.213 145.846C160.403 146.12 160.726 146.232 161.023 146.137L164.841 144.919L163.404 142.988Z" fill="url(#paint21_linear_230_2733)"/>
<path d="M179.831 112.798C180.802 117.105 190.624 140.834 184.467 141.479C179.828 141.965 162.614 145.899 162.614 145.899L162.33 142.875C162.33 142.875 172.931 135.722 179.016 136.367C178.457 134.098 166.334 116.566 168.199 112.75L179.831 112.798Z" fill="url(#paint22_linear_230_2733)"/>
<path d="M171.16 163.907C171.16 163.907 170.165 165.789 170.267 168.312C170.291 168.907 170.749 169.363 171.278 169.342L179.827 169.003C180.228 168.987 180.372 168.403 180.036 168.157C178.378 166.946 175.124 164.688 172.795 163.843L171.16 163.907Z" fill="url(#paint23_linear_230_2733)"/>
<path d="M172.468 160.336L171.316 163.802C171.187 164.189 171.357 164.631 171.704 164.769C171.915 164.854 172.184 164.918 172.509 164.919C172.817 164.92 173.095 164.703 173.212 164.381L174.707 160.253L172.468 160.336Z" fill="url(#paint24_linear_230_2733)"/>
<path d="M170.412 108.498C170.412 108.498 161.451 114.414 182.992 137.431C175.781 140.119 172.022 160.652 172.022 160.652C173.097 161.43 173.931 162.286 174.941 161.74C174.941 161.74 186.813 143.553 187.892 138.031C188.467 135.091 180.226 117.237 179.677 113.046C171.675 108.814 170.412 108.498 170.412 108.498Z" fill="url(#paint25_linear_230_2733)"/>
<path d="M177.716 87.6709C174.586 87.2054 171.274 89.3429 165.927 97.432C165.927 98.6665 167.353 100.39 168.36 102.137C169.259 101.189 172.812 99.3169 173.76 98.1721C170.577 104.764 170.464 106.907 168.2 112.75C168.058 113.114 176.033 116.001 180.178 113.37L188.657 98.4266C189.645 96.838 189.403 90.9054 188.056 90.381C185.17 89.2564 181.772 88.2741 177.716 87.6709Z" fill="url(#paint26_linear_230_2733)"/>
<path d="M183.066 82.7709L180.666 88.0464C180.519 88.3683 180.563 88.7572 180.778 89.0261C181.359 89.7531 182.731 90.9337 185.119 90.0875C185.382 89.9943 185.571 89.7344 185.611 89.4277L186.236 84.6366L183.066 82.7709Z" fill="url(#paint27_linear_230_2733)"/>
<path d="M187.158 76.2228C187.218 76.3259 188.926 84.2567 188.926 84.2567L184.874 85.2558L182.261 78.0092C182.261 78.0092 186.147 74.4968 187.158 76.2228Z" fill="url(#paint28_linear_230_2733)"/>
<path d="M183.742 79.1501L184.852 83.0859C184.866 83.1363 184.886 83.1833 184.912 83.2276C185.07 83.4985 185.675 84.3858 186.446 83.6349C187.145 82.9535 187.792 82.3433 188.376 82.2497C188.638 82.2077 188.886 82.3957 188.948 82.6848C189.103 83.4055 189.425 85.0366 189.513 86.5017C189.531 86.799 189.341 87.0601 189.079 87.1062C188.289 87.2448 186.616 87.4847 185.23 87.3235C185.042 87.3017 184.88 87.1687 184.807 86.9731C184.451 86.0192 183.361 83.1247 182.946 82.3709C182.557 81.6633 181.552 81.6459 181.13 81.6723C180.991 81.681 180.857 81.626 180.756 81.5195C180.398 81.1433 179.724 80.1916 180.743 79.1195C180.956 78.8951 180.961 78.5206 180.755 78.2882C180.344 77.8254 179.915 77.0155 180.649 76.0576C181.395 75.084 182.337 75.2779 182.911 75.537C183.142 75.6417 183.401 75.5398 183.536 75.3034C183.612 75.1688 183.742 75.0696 183.961 75.0988C184.256 75.1383 184.513 74.8701 184.517 74.5364C184.526 73.8955 184.754 73.0936 185.753 72.7841C187.527 72.2349 188.566 74.1802 188.633 75.6057C188.7 77.0313 186.747 77.5039 185.611 77.3662C184.747 77.2615 184.076 78.202 183.803 78.6589C183.717 78.8035 183.695 78.9841 183.742 79.1501Z" fill="url(#paint29_linear_230_2733)"/>
<path d="M183.363 83.7992C183.363 83.7992 183.151 81.3209 182.24 81.1665C181.33 81.012 180.416 81.823 181.284 83.2416C182.364 85.006 183.363 83.7992 183.363 83.7992Z" fill="url(#paint30_linear_230_2733)"/>
<path opacity="0.48" d="M237.56 189.412L117.861 187.787C116.443 187.768 115.303 186.472 115.303 184.88V179.282C115.303 177.887 116.321 176.762 117.563 176.784L237.87 178.943C239.289 178.968 240.428 180.268 240.428 181.862V186.23C240.428 188.003 239.138 189.434 237.56 189.412Z" fill="white"/>
<path d="M89.6907 171.469C89.8315 171.469 89.9454 171.574 89.9452 171.733L89.9376 176.325C89.9374 176.483 89.823 176.623 89.6822 176.623H89.6358C89.4951 176.623 89.3811 176.47 89.3813 176.312L89.3889 171.743C89.3892 171.585 89.5035 171.469 89.6442 171.469L89.6907 171.469Z" fill="url(#paint31_linear_230_2733)"/>
<path d="M93.0036 171.415C93.1572 171.415 93.2814 171.555 93.2812 171.728L93.2774 174.07C93.2771 174.242 93.1524 174.382 92.9988 174.382C92.8452 174.381 92.7209 174.241 92.7212 174.069L92.725 171.726C92.7253 171.554 92.8501 171.414 93.0036 171.415Z" fill="url(#paint32_linear_230_2733)"/>
<path d="M96.5036 171.469C96.6443 171.469 96.7582 171.582 96.758 171.74L96.7504 176.329C96.7502 176.487 96.6359 176.623 96.4951 176.623H96.4488C96.308 176.623 96.1941 176.477 96.1943 176.319L96.2019 171.747C96.2022 171.589 96.3165 171.469 96.4573 171.469H96.5036Z" fill="url(#paint33_linear_230_2733)"/>
<path d="M100.095 171.446C100.248 171.447 100.373 171.587 100.372 171.759L100.369 174.101C100.368 174.274 100.244 174.414 100.09 174.413C99.9365 174.413 99.8123 174.273 99.8125 174.1L99.8163 171.758C99.8166 171.585 99.9414 171.446 100.095 171.446Z" fill="url(#paint34_linear_230_2733)"/>
<path d="M103.316 171.469C103.457 171.469 103.571 171.589 103.571 171.747L103.563 176.332C103.563 176.49 103.448 176.623 103.308 176.623H103.261C103.121 176.623 103.007 176.484 103.007 176.326L103.014 171.75C103.015 171.592 103.129 171.469 103.27 171.469L103.316 171.469Z" fill="url(#paint35_linear_230_2733)"/>
<path d="M106.908 171.46C107.061 171.461 107.186 171.601 107.185 171.773L107.182 174.116C107.181 174.288 107.057 174.428 106.903 174.427C106.75 174.427 106.625 174.287 106.625 174.114L106.629 171.772C106.63 171.6 106.754 171.46 106.908 171.46Z" fill="url(#paint36_linear_230_2733)"/>
<path d="M110.128 171.469C110.269 171.469 110.383 171.596 110.383 171.754L110.375 176.336C110.375 176.494 110.261 176.623 110.12 176.623H110.074C109.933 176.623 109.819 176.491 109.819 176.333L109.827 171.754C109.827 171.596 109.941 171.469 110.082 171.469H110.128Z" fill="url(#paint37_linear_230_2733)"/>
<path d="M113.72 171.475C113.874 171.475 113.998 171.615 113.998 171.788L113.994 174.13C113.994 174.302 113.869 174.442 113.716 174.442C113.562 174.441 113.438 174.301 113.438 174.129L113.442 171.787C113.442 171.614 113.567 171.474 113.72 171.475Z" fill="url(#paint38_linear_230_2733)"/>
<path d="M116.942 171.469C117.082 171.469 117.196 171.603 117.196 171.761L117.188 176.339C117.188 176.497 117.074 176.623 116.933 176.623H116.887C116.746 176.623 116.632 176.498 116.632 176.34L116.64 171.757C116.64 171.599 116.754 171.469 116.895 171.469H116.942Z" fill="url(#paint39_linear_230_2733)"/>
<path d="M120.533 171.489C120.686 171.489 120.811 171.629 120.81 171.802L120.807 174.144C120.806 174.317 120.682 174.456 120.528 174.456C120.375 174.456 120.25 174.316 120.25 174.143L120.254 171.801C120.255 171.628 120.379 171.489 120.533 171.489Z" fill="url(#paint40_linear_230_2733)"/>
<path d="M123.754 171.469C123.895 171.469 124.009 171.61 124.009 171.768L124.001 176.343C124.001 176.501 123.886 176.623 123.746 176.623H123.699C123.558 176.623 123.445 176.506 123.445 176.348L123.452 171.761C123.453 171.603 123.567 171.469 123.708 171.469L123.754 171.469Z" fill="url(#paint41_linear_230_2733)"/>
<path d="M127.346 171.503C127.499 171.503 127.624 171.643 127.623 171.816L127.62 174.158C127.619 174.331 127.495 174.47 127.341 174.47C127.188 174.47 127.063 174.33 127.063 174.157L127.067 171.815C127.068 171.642 127.192 171.503 127.346 171.503Z" fill="url(#paint42_linear_230_2733)"/>
<path d="M130.566 171.469C130.707 171.469 130.821 171.617 130.821 171.775L130.813 176.346C130.813 176.504 130.698 176.623 130.558 176.623H130.511C130.371 176.623 130.257 176.513 130.257 176.354L130.264 171.764C130.265 171.606 130.379 171.469 130.52 171.469L130.566 171.469Z" fill="url(#paint43_linear_230_2733)"/>
<path d="M134.158 171.517C134.312 171.518 134.436 171.658 134.436 171.83L134.432 174.172C134.432 174.345 134.307 174.485 134.154 174.484C134 174.484 133.876 174.344 133.876 174.171L133.88 171.829C133.88 171.656 134.005 171.517 134.158 171.517Z" fill="url(#paint44_linear_230_2733)"/>
<path d="M137.38 171.469C137.52 171.469 137.634 171.624 137.634 171.782L137.626 176.35C137.626 176.508 137.512 176.623 137.371 176.623H137.325C137.184 176.623 137.07 176.52 137.07 176.362L137.078 171.768C137.078 171.61 137.192 171.469 137.333 171.469H137.38Z" fill="url(#paint45_linear_230_2733)"/>
<path d="M139.859 171.527C140.012 171.527 140.136 171.667 140.136 171.839L140.132 174.182C140.132 174.354 140.007 174.494 139.854 174.493C139.7 174.493 139.576 174.353 139.576 174.181L139.58 171.838C139.58 171.666 139.705 171.526 139.859 171.527Z" fill="url(#paint46_linear_230_2733)"/>
<path d="M143.501 171.313C143.642 171.313 143.756 171.475 143.756 171.633L143.748 176.197C143.748 176.355 143.633 176.467 143.493 176.467H143.446C143.306 176.467 143.192 176.371 143.192 176.213L143.199 171.616C143.2 171.458 143.314 171.313 143.455 171.313H143.501Z" fill="url(#paint47_linear_230_2733)"/>
<path d="M146.815 171.372C146.968 171.372 147.093 171.512 147.092 171.685L147.088 174.027C147.088 174.2 146.963 174.339 146.81 174.339C146.656 174.339 146.532 174.198 146.532 174.026L146.536 171.684C146.536 171.511 146.661 171.372 146.815 171.372Z" fill="url(#paint48_linear_230_2733)"/>
<path d="M150.314 171.313C150.455 171.313 150.569 171.482 150.569 171.64L150.561 176.201C150.561 176.359 150.446 176.467 150.306 176.467H150.259C150.119 176.467 150.005 176.378 150.005 176.22L150.012 171.619C150.013 171.461 150.127 171.313 150.268 171.313H150.314Z" fill="url(#paint49_linear_230_2733)"/>
<path d="M153.905 171.404C154.059 171.404 154.183 171.544 154.183 171.716L154.179 174.059C154.179 174.231 154.054 174.371 153.901 174.371C153.747 174.37 153.623 174.23 153.623 174.058L153.627 171.715C153.627 171.543 153.752 171.403 153.905 171.404Z" fill="url(#paint50_linear_230_2733)"/>
<path d="M157.127 171.313C157.267 171.313 157.381 171.489 157.381 171.647L157.374 176.205C157.373 176.363 157.259 176.467 157.118 176.467H157.072C156.931 176.467 156.817 176.385 156.817 176.227L156.825 171.623C156.825 171.465 156.94 171.314 157.08 171.314L157.127 171.313Z" fill="url(#paint51_linear_230_2733)"/>
<path d="M160.718 171.418C160.872 171.418 160.996 171.558 160.996 171.731L160.992 174.073C160.992 174.245 160.867 174.385 160.714 174.385C160.56 174.384 160.436 174.244 160.436 174.072L160.44 171.729C160.44 171.557 160.565 171.417 160.718 171.418Z" fill="url(#paint52_linear_230_2733)"/>
<path d="M163.939 171.47C164.08 171.47 164.194 171.574 164.194 171.733L164.186 176.325C164.186 176.483 164.071 176.623 163.931 176.623H163.884C163.744 176.623 163.63 176.47 163.63 176.312L163.637 171.743C163.638 171.585 163.752 171.469 163.893 171.469L163.939 171.47Z" fill="url(#paint53_linear_230_2733)"/>
<path d="M167.531 171.432C167.685 171.432 167.809 171.572 167.809 171.745L167.805 174.087C167.804 174.26 167.68 174.399 167.526 174.399C167.372 174.399 167.248 174.258 167.249 174.086L167.252 171.744C167.253 171.571 167.377 171.432 167.531 171.432Z" fill="url(#paint54_linear_230_2733)"/>
<path d="M170.752 171.47C170.893 171.47 171.007 171.582 171.007 171.74L170.999 176.329C170.999 176.487 170.884 176.623 170.744 176.623H170.697C170.557 176.623 170.443 176.477 170.443 176.319L170.45 171.747C170.451 171.589 170.565 171.47 170.706 171.47H170.752Z" fill="url(#paint55_linear_230_2733)"/>
<path d="M174.344 171.446C174.497 171.446 174.621 171.586 174.621 171.759L174.617 174.101C174.617 174.274 174.492 174.413 174.339 174.413C174.185 174.413 174.061 174.273 174.061 174.1L174.065 171.758C174.065 171.585 174.19 171.446 174.344 171.446Z" fill="url(#paint56_linear_230_2733)"/>
<path d="M177.565 171.47C177.705 171.47 177.819 171.589 177.819 171.747L177.812 176.332C177.811 176.49 177.697 176.623 177.556 176.623H177.51C177.369 176.623 177.255 176.484 177.255 176.326L177.263 171.751C177.263 171.593 177.378 171.47 177.518 171.47L177.565 171.47Z" fill="url(#paint57_linear_230_2733)"/>
<path d="M181.156 171.46C181.31 171.461 181.434 171.601 181.434 171.773L181.43 174.115C181.43 174.288 181.305 174.427 181.152 174.427C180.998 174.427 180.874 174.287 180.874 174.114L180.878 171.772C180.878 171.599 181.003 171.46 181.156 171.46Z" fill="url(#paint58_linear_230_2733)"/>
<path d="M184.377 171.47C184.518 171.47 184.632 171.596 184.632 171.754L184.624 176.336C184.624 176.494 184.51 176.623 184.369 176.623H184.322C184.182 176.623 184.068 176.491 184.068 176.333L184.075 171.754C184.076 171.596 184.19 171.469 184.331 171.469L184.377 171.47Z" fill="url(#paint59_linear_230_2733)"/>
<path d="M187.969 171.474C188.123 171.475 188.247 171.615 188.247 171.787L188.243 174.13C188.242 174.302 188.118 174.442 187.964 174.441C187.811 174.441 187.686 174.301 187.687 174.128L187.69 171.786C187.691 171.614 187.815 171.474 187.969 171.474Z" fill="url(#paint60_linear_230_2733)"/>
<path d="M191.19 171.47C191.331 171.47 191.445 171.603 191.445 171.761L191.437 176.339C191.437 176.497 191.323 176.623 191.182 176.623H191.135C190.995 176.623 190.881 176.498 190.881 176.34L190.888 171.758C190.889 171.599 191.003 171.47 191.144 171.47H191.19Z" fill="url(#paint61_linear_230_2733)"/>
<path d="M193.669 171.484C193.823 171.484 193.947 171.624 193.947 171.797L193.943 174.139C193.943 174.311 193.818 174.451 193.664 174.451C193.511 174.45 193.386 174.31 193.387 174.138L193.391 171.795C193.391 171.623 193.516 171.483 193.669 171.484Z" fill="url(#paint62_linear_230_2733)"/>
<path d="M197.169 171.001C197.31 171.001 197.424 171.143 197.424 171.301L197.416 175.875C197.416 176.033 197.301 176.154 197.161 176.154H197.114C196.974 176.154 196.86 176.038 196.86 175.88L196.867 171.293C196.868 171.135 196.982 171.001 197.123 171.001H197.169Z" fill="url(#paint63_linear_230_2733)"/>
<path d="M200.483 171.019C200.636 171.019 200.76 171.159 200.76 171.332L200.756 173.674C200.756 173.847 200.631 173.986 200.478 173.986C200.324 173.986 200.2 173.846 200.2 173.673L200.204 171.331C200.204 171.158 200.329 171.019 200.483 171.019Z" fill="url(#paint64_linear_230_2733)"/>
<path d="M203.982 171.001C204.122 171.001 204.236 171.15 204.236 171.308L204.229 175.878C204.228 176.037 204.114 176.154 203.973 176.154H203.927C203.786 176.154 203.672 176.045 203.672 175.887L203.68 171.297C203.68 171.139 203.794 171.001 203.935 171.001H203.982Z" fill="url(#paint65_linear_230_2733)"/>
<path d="M207.574 171.05C207.727 171.051 207.851 171.191 207.851 171.363L207.847 173.706C207.847 173.878 207.722 174.018 207.569 174.017C207.415 174.017 207.291 173.877 207.291 173.704L207.295 171.362C207.295 171.19 207.42 171.05 207.574 171.05Z" fill="url(#paint66_linear_230_2733)"/>
<path d="M210.795 171.001C210.935 171.001 211.049 171.157 211.049 171.315L211.042 175.882C211.041 176.04 210.927 176.154 210.786 176.154H210.74C210.599 176.154 210.485 176.052 210.485 175.894L210.493 171.3C210.493 171.142 210.607 171.001 210.748 171.001H210.795Z" fill="url(#paint67_linear_230_2733)"/>
<path d="M214.386 171.065C214.539 171.065 214.664 171.205 214.664 171.378L214.66 173.72C214.659 173.892 214.535 174.032 214.381 174.032C214.228 174.031 214.103 173.891 214.104 173.719L214.107 171.377C214.108 171.204 214.232 171.064 214.386 171.065Z" fill="url(#paint68_linear_230_2733)"/>
<path d="M217.607 171.001C217.748 171.001 217.862 171.164 217.862 171.322L217.854 175.885C217.854 176.044 217.739 176.154 217.599 176.154H217.552C217.411 176.154 217.298 176.059 217.298 175.901L217.305 171.304C217.306 171.146 217.42 171.001 217.561 171.001L217.607 171.001Z" fill="url(#paint69_linear_230_2733)"/>
<path d="M221.199 171.079C221.353 171.079 221.477 171.219 221.476 171.392L221.473 173.734C221.472 173.907 221.348 174.046 221.194 174.046C221.04 174.046 220.916 173.905 220.917 173.733L220.92 171.391C220.921 171.218 221.045 171.079 221.199 171.079Z" fill="url(#paint70_linear_230_2733)"/>
<path d="M224.42 171.001C224.56 171.001 224.674 171.171 224.674 171.329L224.667 175.889C224.666 176.047 224.552 176.154 224.411 176.154H224.365C224.224 176.154 224.11 176.067 224.11 175.909L224.118 171.307C224.118 171.149 224.232 171.001 224.373 171.001L224.42 171.001Z" fill="url(#paint71_linear_230_2733)"/>
<path d="M228.011 171.093C228.165 171.093 228.289 171.234 228.289 171.406L228.285 173.748C228.285 173.921 228.16 174.06 228.007 174.06C227.853 174.06 227.729 173.92 227.729 173.747L227.733 171.405C227.733 171.232 227.858 171.093 228.011 171.093Z" fill="url(#paint72_linear_230_2733)"/>
<path d="M231.233 171.001C231.373 171.001 231.487 171.178 231.487 171.336L231.48 175.893C231.479 176.051 231.365 176.154 231.224 176.154H231.178C231.037 176.154 230.923 176.074 230.923 175.916L230.931 171.311C230.931 171.153 231.045 171.001 231.186 171.001H231.233Z" fill="url(#paint73_linear_230_2733)"/>
<path d="M234.824 171.107C234.978 171.108 235.102 171.248 235.102 171.42L235.098 173.762C235.098 173.935 234.973 174.074 234.82 174.074C234.666 174.074 234.542 173.934 234.542 173.761L234.546 171.419C234.546 171.246 234.671 171.107 234.824 171.107Z" fill="url(#paint74_linear_230_2733)"/>
<path d="M238.045 171.157C238.186 171.157 238.3 171.263 238.3 171.421L238.292 176.013C238.292 176.171 238.177 176.31 238.037 176.31H237.99C237.85 176.31 237.736 176.159 237.736 176.001L237.743 171.432C237.744 171.274 237.858 171.157 237.999 171.157H238.045Z" fill="url(#paint75_linear_230_2733)"/>
<path d="M241.637 171.121C241.79 171.122 241.915 171.262 241.914 171.434L241.911 173.777C241.91 173.949 241.786 174.089 241.632 174.088C241.478 174.088 241.354 173.948 241.354 173.775L241.358 171.433C241.359 171.261 241.483 171.121 241.637 171.121Z" fill="url(#paint76_linear_230_2733)"/>
<path d="M244.858 171.157C244.999 171.157 245.113 171.27 245.112 171.428L245.105 176.017C245.105 176.175 244.99 176.31 244.85 176.31H244.803C244.663 176.31 244.549 176.166 244.549 176.008L244.556 171.435C244.557 171.277 244.671 171.157 244.812 171.157H244.858Z" fill="url(#paint77_linear_230_2733)"/>
<path d="M247.337 171.131C247.491 171.131 247.615 171.271 247.615 171.444L247.611 173.786C247.611 173.958 247.486 174.098 247.332 174.098C247.179 174.097 247.054 173.957 247.055 173.785L247.059 171.443C247.059 171.27 247.184 171.13 247.337 171.131Z" fill="url(#paint78_linear_230_2733)"/>
<path d="M147.313 191.358C147.152 191.358 147.021 191.28 147.021 191.183L146.923 172.953C146.922 172.856 147.053 172.777 147.214 172.776C147.214 172.776 147.214 172.776 147.214 172.776C147.375 172.776 147.506 172.855 147.507 172.952L147.605 191.181C147.605 191.279 147.475 191.358 147.314 191.358C147.314 191.358 147.313 191.358 147.313 191.358Z" fill="url(#paint79_linear_230_2733)"/>
<path d="M145.389 172.024L148.941 172.08C149.296 172.085 149.516 172.516 149.342 172.863L147.566 176.401C147.386 176.759 146.927 176.757 146.75 176.398L144.974 172.804C144.8 172.452 145.03 172.019 145.389 172.024Z" fill="url(#paint80_linear_230_2733)"/>
<path d="M245.642 169.402H220.917V133.335C220.917 132.154 221.769 131.197 222.82 131.197H244.053C244.931 131.197 245.642 131.996 245.642 132.982V169.402Z" fill="#7D97F4"/>
<path d="M225.357 169.228H200.632V144.424C200.632 143.142 201.557 142.103 202.698 142.103H225.357V169.228Z" fill="#7D97F4"/>
<path d="M227.623 83.5999C224.1 80.1709 222.877 76.8174 223.328 74.2479C221.993 73.6253 221.005 71.9643 218.792 72.3662C215.633 78.5596 226.421 85.6839 226.421 85.6839L227.623 83.5999Z" fill="url(#paint81_linear_230_2733)"/>
<path d="M229.45 68.117L231.708 58.9659C224.746 60.8093 220.129 68.0542 218.075 73.5537C219.505 73.9665 221.66 74.6861 223.775 74.4974C224.58 69.9164 229.45 68.117 229.45 68.117Z" fill="url(#paint82_linear_230_2733)"/>
<path d="M226.713 84.1999C226.713 84.1999 228.16 82.3744 230.029 83.5177C230.029 83.5177 230.731 83.8489 230.108 84.7358C230.108 84.7358 232.081 85.9796 231.645 86.6858C231.209 87.3919 230.155 89.2257 228.138 88.5777C226.098 87.9224 226.071 85.067 226.713 84.1999Z" fill="url(#paint83_linear_230_2733)"/>
<path d="M228.195 85.5935C228.143 85.4169 228.115 85.2162 228.154 85.0142C228.192 84.8162 228.311 84.5402 228.665 84.349C228.781 84.2861 228.921 84.3409 228.977 84.4717C229.033 84.6012 228.984 84.7598 228.868 84.8229C228.647 84.9422 228.621 85.0792 228.612 85.1242C228.58 85.2868 228.648 85.4832 228.722 85.6338L229.709 84.829C229.814 84.7437 229.96 84.7698 230.036 84.8873C230.113 85.0048 230.089 85.1695 229.984 85.2546L228.801 86.2191C228.702 86.3003 228.563 86.2811 228.484 86.1751C228.455 86.1367 228.287 85.902 228.195 85.5935Z" fill="#F79E6D"/>
<path d="M233.756 125.978C233.756 125.978 232.691 127.811 232.7 130.337C232.702 130.932 233.143 131.41 233.672 131.413L242.227 131.474C242.627 131.476 242.793 130.899 242.467 130.639C240.855 129.35 237.687 126.943 235.391 125.99L233.756 125.978Z" fill="url(#paint84_linear_230_2733)"/>
<path d="M235.406 122.549L233.948 125.866C233.785 126.237 233.914 126.696 234.247 126.873C234.449 126.981 234.71 127.076 235.034 127.113C235.341 127.149 235.637 126.965 235.782 126.658L237.642 122.721L235.406 122.549Z" fill="url(#paint85_linear_230_2733)"/>
<path d="M229.725 85.425C232.944 88.0069 255.121 101.432 250.795 106.394C247.535 110.134 236.666 125.633 236.666 125.633L234.709 123.533C234.709 123.533 238.68 110.378 243.694 106.452C241.961 105.127 224.095 97.2668 224.985 94.5197L229.725 85.425Z" fill="url(#paint86_linear_230_2733)"/>
<path d="M200.899 133.734C200.399 133.422 198.39 136.398 197.997 136.624C198.604 137.973 199.849 138.925 200.907 139.79C201.659 140.404 203.338 142.074 204.332 142.084C205.93 142.101 206.424 142.108 208.087 142.105C208.413 142.104 208.588 141.675 208.378 141.396C207.505 140.239 205.69 139.716 204.824 138.815C203.775 137.721 203.288 135.864 202.329 134.625C202.329 134.625 200.905 133.738 200.899 133.734Z" fill="url(#paint87_linear_230_2733)"/>
<path d="M201.951 130.895L200.651 134.294C200.506 134.674 200.657 135.125 200.998 135.282C201.205 135.377 201.47 135.456 201.795 135.475C202.103 135.492 202.39 135.29 202.52 134.976L204.191 130.933L201.951 130.895Z" fill="url(#paint88_linear_230_2733)"/>
<path d="M224.145 82.1287C224.145 82.1287 215.637 81.7234 215.237 109.962C209.512 112.178 201.205 131.667 201.205 131.667C201.511 133.061 202.324 133.782 203.392 134.165C203.392 134.165 215.231 118.796 219.296 114.275C221.2 112.157 229.957 89.1776 232.121 85.7089C228.894 76.4591 224.145 82.1287 224.145 82.1287Z" fill="url(#paint89_linear_230_2733)"/>
<path d="M233.296 58.6456C230.501 58.8053 227.199 61.2468 226.665 65.2258C225.093 71.8227 222.554 78.9526 220.291 84.7949C220.149 85.1605 228.121 89.9401 232.265 87.3105L240.095 70.3438C241.083 68.7552 239.856 59.7665 238.153 59.1459C235.458 58.164 237.041 58.4318 233.296 58.6456Z" fill="url(#paint90_linear_230_2733)"/>
<path d="M235.437 53.9398L233.037 59.2154C232.891 59.5372 232.935 59.9262 233.15 60.1951C233.731 60.922 235.103 62.1027 237.49 61.2566C237.753 61.1633 237.943 60.9034 237.983 60.5967L238.608 55.8056L235.437 53.9398Z" fill="url(#paint91_linear_230_2733)"/>
<path d="M248.898 85.8183C247.932 85.7563 246.568 86.6871 245.952 87.1518C244.653 87.107 238.77 85.7519 237.51 80.6696C235.665 80.8604 232.886 80.1508 231.621 80.5193C232.78 85.3762 237.37 91.1582 245.957 88.8858C247.266 90.0553 249.438 90.0282 249.933 89.6145C250.162 89.4239 250.182 85.9007 248.898 85.8183Z" fill="url(#paint92_linear_230_2733)"/>
<path d="M227.162 66.1857C227.564 70.6476 229.496 76.3369 232.293 82.5446C234.318 82.5421 236.2 82.2603 237.631 81.1015L235.586 67.0753C233.433 62.4193 229.835 59.3255 227.162 66.1857Z" fill="url(#paint93_linear_230_2733)"/>
<path d="M240.586 47.7601C240.632 47.8724 241.231 56.0041 241.231 56.0041L237.09 56.2897L235.502 48.6773C235.502 48.6773 239.824 45.8796 240.586 47.7601Z" fill="url(#paint94_linear_230_2733)"/>
<path d="M236.81 50.061L237.367 54.1418C237.374 54.1941 237.387 54.2439 237.406 54.2921C237.525 54.5872 238.002 55.5687 238.866 54.9601C239.65 54.4079 240.374 53.917 240.963 53.9256C241.228 53.9295 241.447 54.158 241.469 54.4545C241.523 55.1934 241.618 56.8608 241.503 58.3236C241.48 58.6205 241.257 58.8456 240.991 58.8457C240.192 58.8458 238.506 58.7932 237.158 58.3941C236.976 58.3399 236.834 58.1806 236.789 57.9746C236.568 56.9706 235.888 53.9219 235.582 53.1053C235.294 52.3388 234.304 52.1476 233.883 52.1006C233.745 52.0852 233.62 52.0077 233.535 51.885C233.233 51.4513 232.697 50.3943 233.851 49.5113C234.092 49.3264 234.149 48.9574 233.977 48.692C233.635 48.1637 233.322 47.2891 234.178 46.4698C235.049 45.6371 235.954 45.9918 236.484 46.347C236.699 46.4906 236.969 46.4347 237.134 46.2244C237.229 46.1047 237.37 46.0291 237.583 46.0959C237.869 46.186 238.159 45.9655 238.209 45.6366C238.306 45.0048 238.641 44.2519 239.671 44.1191C241.498 43.8835 242.258 45.9856 242.129 47.4056C242 48.8257 240.005 48.9546 238.901 48.6218C238.062 48.3687 237.27 49.1819 236.938 49.5861C236.833 49.7142 236.787 49.8889 236.81 50.061Z" fill="url(#paint95_linear_230_2733)"/>
<path d="M235.797 54.5889C235.797 54.5889 235.928 52.1036 235.05 51.7932C234.171 51.4829 233.157 52.1259 233.82 53.6779C234.645 55.6085 235.797 54.5889 235.797 54.5889Z" fill="url(#paint96_linear_230_2733)"/>
<path d="M34.2127 186.084H31.7939V215.463H34.2127V186.084Z" fill="#7D97F4"/>
<path d="M22.4106 216.029H43.5955V215.071C43.5955 214.624 43.2723 214.261 42.8737 214.261H23.1886C22.759 214.261 22.4106 214.652 22.4106 215.135V216.029Z" fill="#7D97F4"/>
<path d="M18.4043 185C18.4043 186.708 19.6482 188.105 21.1687 188.105H43.9475C45.4679 188.105 46.7119 186.708 46.7119 185V182.193C46.7119 180.485 45.468 179.088 43.9475 179.088H21.1687C19.6483 179.088 18.4043 180.485 18.4043 182.193V185Z" fill="#7D97F4"/>
<path d="M46.4755 210.258C46.4755 210.258 53.3823 215.85 52.1831 219.606C52.1831 219.606 44.626 215.944 43.713 213.06C42.8 210.175 43.8675 208.901 43.8675 208.901L46.4755 210.258Z" fill="url(#paint97_linear_230_2733)"/>
<path d="M45.4376 205.572L44.3082 209.239C44.1378 209.792 44.3082 210.423 44.749 210.735C44.9697 210.892 45.2713 211.037 45.6835 211.142C46.2653 211.29 46.8659 210.988 47.1457 210.396L48.4966 207.539L45.4376 205.572Z" fill="url(#paint98_linear_230_2733)"/>
<path d="M34.4469 172.566C34.4469 172.566 48.6333 175.327 54.7188 181.641C60.8043 187.955 49.1332 208.096 49.1332 208.096C49.1332 208.096 47.221 208.082 44.9037 205.852C44.9037 205.852 51.8238 190.704 45.86 186.287C39.1551 181.32 31.4282 180.202 31.4282 180.202L34.3097 173.052L34.4469 172.566Z" fill="url(#paint99_linear_230_2733)"/>
<path d="M50.9829 217.529C49.4638 216.739 45.163 213.358 44.438 213.209C43.713 213.059 42.4555 214.016 42.4555 214.016C42.4555 214.016 42.1497 214.634 42.4768 215.712C43.4863 217.084 45.7277 219.699 48.7409 220.673C50.9573 221.39 52.5077 220.722 53.4732 219.94C52.9421 219.031 51.9947 218.055 50.9829 217.529Z" fill="url(#paint100_linear_230_2733)"/>
<path d="M48.7406 220.673C45.7274 219.699 43.486 217.084 42.4766 215.712C42.6977 216.44 43.2074 217.378 44.2967 218.478C46.9983 221.205 52.1581 222.188 53.2567 221.998C54.137 221.847 54.0541 220.934 53.4729 219.94C52.5074 220.722 50.9571 221.39 48.7406 220.673Z" fill="url(#paint101_linear_230_2733)"/>
<path d="M41.1675 211.63C41.1845 212.1 42.04 213.712 42.54 214.617C42.7776 215.046 43.1939 215.309 43.6443 215.31C43.93 215.311 44.2585 215.283 44.5567 215.187C45.0044 215.043 45.2558 214.507 45.1249 214.005L44.1479 210.258L41.1675 211.63Z" fill="url(#paint102_linear_230_2733)"/>
<path d="M20.7909 167.783C20.7909 167.783 17.6403 177.245 20.7909 180.122C23.9415 183 31.4574 186.239 33.1364 191.97C34.8154 197.701 37.6646 208.84 41.4775 212.784C41.4775 212.784 44.1566 212.493 45.1591 211.294C45.1591 211.294 42.9874 194.666 41.5552 190.4C40.3149 186.705 38.4874 181.372 34.9853 178.391C33.9828 177.538 34.1574 176.186 34.6222 174.874L35.4687 172.483L20.7909 167.783Z" fill="url(#paint103_linear_230_2733)"/>
<path d="M53.6499 160.367C48.3673 160.725 50.0134 151.246 50.1085 150.869L42.0908 157.229C42.0908 157.229 42.5153 162.298 49.1813 164.957C50.8678 165.63 52.4092 165.66 53.7721 165.331C53.191 163.427 53.3091 161.719 53.6499 160.367Z" fill="url(#paint104_linear_230_2733)"/>
<path d="M63.8644 157.514C61.8959 155.976 59.6657 157.514 59.6657 157.514C57.0337 159.447 55.0863 160.27 53.6499 160.367C53.309 161.719 53.1909 163.427 53.772 165.331C56.7206 164.619 58.8302 162.222 59.7469 160.992C60.0769 160.549 60.6613 160.473 61.0648 160.83C61.4747 161.194 61.8727 161.692 61.8006 162.216C61.6583 163.249 62.7257 163.577 62.8061 163.202C62.8867 162.828 62.441 160.606 62.441 160.606C62.441 160.606 64.5759 163.018 65.4093 163.944C66.2427 164.871 67.2907 163.944 67.2907 163.944C67.2907 163.944 65.8329 159.052 63.8644 157.514Z" fill="url(#paint105_linear_230_2733)"/>
<path d="M29.0173 136.23C29.0173 136.23 36.7026 132.774 51.0052 146.036C51.0052 146.036 52.1999 148.814 50.8966 151.286C49.5933 153.758 37.1753 165.803 35.4685 172.483C35.4685 172.483 28.0704 175.183 20.4194 168.781C20.4194 168.781 21.0946 150.19 29.0173 136.23Z" fill="url(#paint106_linear_230_2733)"/>
<path d="M44.2106 133.146L40.4273 138.297C40.0517 138.808 39.9689 139.52 40.2288 140.115C40.7538 141.319 41.9998 143.07 44.7632 142.828C45.5852 142.756 46.3131 142.199 46.6721 141.365L49.3175 135.223L44.2106 133.146Z" fill="url(#paint107_linear_230_2733)"/>
<path d="M23.0676 158.292C22.1754 154.211 31.2124 145.113 31.2124 145.113L29.0177 136.23C29.0177 136.23 9.504 150.82 14.4768 162.553C15.1897 164.235 16.1365 165.414 17.2343 166.201C18.8055 161.451 21.3097 159.272 23.0676 158.292Z" fill="url(#paint108_linear_230_2733)"/>
<path d="M23.0613 157.698C22.9654 157.698 22.8781 157.625 22.8543 157.515C21.9419 153.343 30.6911 144.476 31.0639 144.101C31.1515 144.012 31.2863 144.02 31.3655 144.119C31.4442 144.218 31.4366 144.369 31.3491 144.458C31.2596 144.548 22.4173 153.506 23.269 157.401C23.2971 157.53 23.227 157.659 23.1125 157.691C23.0955 157.696 23.0783 157.698 23.0613 157.698Z" fill="url(#paint109_linear_230_2733)"/>
<path d="M36.7547 157.941C36.7547 157.941 26.0403 162.613 23.4251 159.099C23.2478 158.86 23.1321 158.589 23.0672 158.292C21.3093 159.273 18.8052 161.451 17.2339 166.202C22.8691 170.246 32.5011 163.952 35.1055 162.096C35.5339 161.791 36.0479 161.684 36.5447 161.8C37.5493 162.033 39.2846 162.378 40.2205 162.216C41.5897 161.979 43.5563 167.403 45.7754 165.73C45.7754 165.73 43.8751 156.301 36.7547 157.941Z" fill="url(#paint110_linear_230_2733)"/>
<path d="M53.6482 127.218C53.6482 127.218 53.7137 132.827 52.9066 135.375C52.0997 137.922 51.9735 139.763 49.2235 139.056C46.4736 138.348 44.8507 135.897 44.608 132.866C44.608 132.866 44.2038 128.181 45.1997 126.81C46.1955 125.439 53.6482 127.218 53.6482 127.218Z" fill="url(#paint111_linear_230_2733)"/>
<path d="M46.1501 131.496L46.4741 131.648C46.4741 131.648 46.2887 127.944 47.6634 127.957C49.0382 127.97 54.0817 129.096 55.7762 127.717C57.4097 126.388 57.4097 123.676 56.3615 122.423C56.2952 122.344 56.1828 122.341 56.108 122.41L55.9163 122.587C55.7851 122.708 55.5895 122.588 55.6091 122.399C55.6277 122.219 55.4484 122.093 55.3171 122.198C54.8033 122.607 53.636 123.115 51.235 122.527C47.8281 121.691 45.2005 122.143 44.2318 124.573C44.1704 124.727 43.9904 124.743 43.9024 124.606C43.7287 124.336 43.3832 124.085 42.7077 124.321C41.533 124.732 41.0932 127.026 42.3425 129.673C42.4018 129.799 42.3418 129.957 42.2171 129.983C41.7777 130.072 41.0392 130.43 42.0728 131.858C43.1301 133.32 43.9703 133.611 44.3075 133.667C44.3983 133.682 44.4847 133.624 44.515 133.527L45.2083 131.295C45.2441 131.18 45.3592 131.122 45.4596 131.17L46.1501 131.496Z" fill="url(#paint112_linear_230_2733)"/>
<path d="M46.0595 131.988C46.0595 131.988 46.4906 128.628 44.9638 128.907C43.437 129.187 44.3226 132.598 45.2524 133.169L46.0595 131.988Z" fill="url(#paint113_linear_230_2733)"/>
<path d="M81.9496 221.308C82.0741 221.308 82.2007 221.281 82.3224 221.224C82.8017 221 83.0231 220.396 82.8169 219.875L63.0046 169.794C62.7986 169.273 62.2433 169.033 61.7635 169.256C61.2843 169.481 61.0628 170.085 61.269 170.606L81.0813 220.687C81.235 221.075 81.5834 221.308 81.9496 221.308Z" fill="#91B3FA"/>
<path d="M59.6305 221.308C59.9966 221.308 60.345 221.075 60.4988 220.686L80.311 170.606C80.5172 170.085 80.2958 169.481 79.8166 169.256C79.3376 169.032 78.7818 169.273 78.5754 169.794L58.7632 219.875C58.557 220.396 58.7784 221 59.2576 221.224C59.3792 221.281 59.506 221.308 59.6305 221.308Z" fill="#91B3FA"/>
<path d="M25.369 221.308C25.4936 221.308 25.6201 221.281 25.7418 221.224C26.2211 221 26.4425 220.396 26.2363 219.875L6.42406 169.794C6.21787 169.273 5.66279 169.033 5.18293 169.256C4.70369 169.481 4.48227 170.085 4.68846 170.606L24.5007 220.687C24.6545 221.075 25.0029 221.308 25.369 221.308Z" fill="#91B3FA"/>
<path d="M3.04993 221.308C3.416 221.308 3.76442 221.075 3.9182 220.686L23.7305 170.606C23.9366 170.085 23.7152 169.481 23.236 169.256C22.7571 169.032 22.2012 169.273 21.9949 169.794L2.18261 219.875C1.97642 220.396 2.19783 221 2.67707 221.224C2.79868 221.281 2.92536 221.308 3.04993 221.308Z" fill="#91B3FA"/>
<path d="M0.435374 168.248C0.387263 167.92 0.452792 167.58 0.613917 167.322C0.775042 167.064 1.01497 166.914 1.26818 166.914H87.0354C87.3684 166.914 87.6783 167.138 87.8577 167.509C88.0371 167.88 88.0611 168.346 87.9215 168.745L86.9921 171.403C86.7793 172.012 86.3181 172.402 85.8107 172.402H1.85668C1.38463 172.402 0.978889 171.959 0.889228 171.347L0.435374 168.248Z" fill="#BDD0FB"/>
<path d="M42.2442 167.154C42.2614 167.155 42.2786 167.156 42.2959 167.156L64.7763 167.128C65.332 167.127 65.782 166.621 65.7814 165.997C65.7809 165.372 65.3283 164.857 64.7741 164.868L42.2938 164.895C41.7381 164.896 41.288 165.402 41.2886 166.027C41.2892 166.631 41.7126 167.125 42.2442 167.154Z" fill="url(#paint114_linear_230_2733)"/>
<path d="M84.9849 144.23H66.2631C64.882 144.23 63.6249 145.125 63.0359 146.528L54.3809 167.141H77.647C78.537 167.141 79.3366 166.53 79.6638 165.6L86.3754 146.526C86.7632 145.424 86.04 144.23 84.9849 144.23Z" fill="url(#paint115_linear_230_2733)"/>
<path d="M71.7952 154.799C71.3894 156.214 71.6892 157.589 72.4646 157.87C73.24 158.15 74.1975 157.23 74.6032 155.814C75.0088 154.398 74.7092 153.023 73.9338 152.743C73.1584 152.462 72.2009 153.383 71.7952 154.799Z" fill="#7D97F4"/>
<path d="M217.904 200.12C217.904 200.12 207.763 173.806 215.441 146.084C215.491 145.903 215.777 145.938 215.798 146.128C217.649 162.894 218.2 181.053 217.904 200.12Z" fill="url(#paint116_linear_230_2733)"/>
<path d="M217.865 199.566C217.808 199.566 217.755 199.524 217.739 199.459C215.94 192.28 215.256 180.081 214.999 171.111C214.72 161.398 214.868 153.275 214.87 153.194C214.871 153.113 214.919 153.05 215.003 153.051C215.075 153.052 215.132 153.119 215.13 153.2C215.129 153.281 214.981 161.398 215.259 171.103C215.516 180.056 216.198 192.229 217.99 199.38C218.01 199.457 217.969 199.538 217.9 199.56C217.888 199.564 217.876 199.566 217.865 199.566Z" fill="#91B3FA"/>
<path d="M220.227 195.831C220.227 195.831 213.962 163.545 225.802 130.873C225.879 130.66 226.161 130.723 226.154 130.952C225.515 151.187 223.365 172.995 220.227 195.831Z" fill="url(#paint117_linear_230_2733)"/>
<path d="M220.291 195.135C220.224 195.135 220.168 195.078 220.161 195.003C218.751 178.296 224.116 139.733 224.171 139.345C224.182 139.266 224.248 139.21 224.32 139.224C224.391 139.236 224.439 139.311 224.428 139.391C224.374 139.778 219.014 178.305 220.421 194.975C220.427 195.056 220.375 195.127 220.303 195.135C220.299 195.135 220.295 195.135 220.291 195.135Z" fill="#91B3FA"/>
<path d="M221.221 204.586C221.221 204.586 218.22 176.421 233.13 151.074C233.228 150.909 233.499 151.01 233.47 151.201C230.844 168.061 226.571 185.978 221.221 204.586Z" fill="url(#paint118_linear_230_2733)"/>
<path d="M221.368 204.037H221.365C221.293 204.035 221.236 203.968 221.237 203.887C221.371 196.431 223.933 184.32 226.059 175.474C228.362 165.894 230.662 157.971 230.685 157.892C230.707 157.816 230.781 157.774 230.849 157.799C230.918 157.824 230.955 157.906 230.933 157.983C230.91 158.062 228.611 165.978 226.31 175.552C224.188 184.382 221.631 196.467 221.498 203.893C221.496 203.973 221.438 204.037 221.368 204.037Z" fill="#91B3FA"/>
<path d="M213.608 188.997H227.392C228.424 188.997 229.195 190.088 229.004 191.227C228.181 196.119 226.514 200.442 224.781 204.058C224.394 204.866 223.645 205.381 222.828 205.381H218.33C217.501 205.381 216.74 204.875 216.341 204.059C214.178 199.639 213.121 195.253 212.239 190.962C212.036 189.973 212.704 188.997 213.608 188.997Z" fill="#7D97F4"/>
<defs>
<linearGradient id="paint0_linear_230_2733" x1="170.542" y1="55.7727" x2="156.535" y2="207.604" gradientUnits="userSpaceOnUse">
<stop stop-color="#09005D"/>
<stop offset="1" stop-color="#1A0F91"/>
</linearGradient>
<linearGradient id="paint1_linear_230_2733" x1="108.277" y1="112.434" x2="111.424" y2="65.5828" gradientUnits="userSpaceOnUse">
<stop stop-color="#FEBBBA"/>
<stop offset="1" stop-color="#FF928E"/>
</linearGradient>
<linearGradient id="paint2_linear_230_2733" x1="88.5801" y1="130.804" x2="86.3535" y2="141.702" gradientUnits="userSpaceOnUse">
<stop stop-color="#09005D"/>
<stop offset="1" stop-color="#1A0F91"/>
</linearGradient>
<linearGradient id="paint3_linear_230_2733" x1="92.3016" y1="132.245" x2="91.4228" y2="134.949" gradientUnits="userSpaceOnUse">
<stop stop-color="#FEBBBA"/>
<stop offset="1" stop-color="#FF928E"/>
</linearGradient>
<linearGradient id="paint4_linear_230_2733" x1="178.953" y1="109.76" x2="164.647" y2="113.534" gradientUnits="userSpaceOnUse">
<stop stop-color="#4F52FF"/>
<stop offset="1" stop-color="#4042E2"/>
</linearGradient>
<linearGradient id="paint5_linear_230_2733" x1="142.875" y1="167.734" x2="151.72" y2="162.506" gradientUnits="userSpaceOnUse">
<stop stop-color="#09005D"/>
<stop offset="1" stop-color="#1A0F91"/>
</linearGradient>
<linearGradient id="paint6_linear_230_2733" x1="141.219" y1="163.723" x2="143.588" y2="162.613" gradientUnits="userSpaceOnUse">
<stop stop-color="#FEBBBA"/>
<stop offset="1" stop-color="#FF928E"/>
</linearGradient>
<linearGradient id="paint7_linear_230_2733" x1="130.698" y1="154.02" x2="134.921" y2="171.37" gradientUnits="userSpaceOnUse">
<stop stop-color="#4F52FF"/>
<stop offset="1" stop-color="#4042E2"/>
</linearGradient>
<linearGradient id="paint8_linear_230_2733" x1="163.848" y1="-46.3515" x2="150.851" y2="8.03593" gradientUnits="userSpaceOnUse">
<stop stop-color="#FF928E"/>
<stop offset="1" stop-color="#FE7062"/>
</linearGradient>
<linearGradient id="paint9_linear_230_2733" x1="151.754" y1="100.648" x2="121.106" y2="113.867" gradientUnits="userSpaceOnUse">
<stop stop-color="#FEBBBA"/>
<stop offset="1" stop-color="#FF928E"/>
</linearGradient>
<linearGradient id="paint10_linear_230_2733" x1="151.895" y1="100.974" x2="121.247" y2="114.193" gradientUnits="userSpaceOnUse">
<stop stop-color="#FEBBBA"/>
<stop offset="1" stop-color="#FF928E"/>
</linearGradient>
<linearGradient id="paint11_linear_230_2733" x1="150.626" y1="-49.5117" x2="137.629" y2="4.87561" gradientUnits="userSpaceOnUse">
<stop stop-color="#FF928E"/>
<stop offset="1" stop-color="#FE7062"/>
</linearGradient>
<linearGradient id="paint12_linear_230_2733" x1="127.013" y1="95.9664" x2="129.262" y2="90.2565" gradientUnits="userSpaceOnUse">
<stop stop-color="#FEBBBA"/>
<stop offset="1" stop-color="#FF928E"/>
</linearGradient>
<linearGradient id="paint13_linear_230_2733" x1="130.274" y1="80.9087" x2="130.643" y2="96.4268" gradientUnits="userSpaceOnUse">
<stop stop-color="#FEBBBA"/>
<stop offset="1" stop-color="#FF928E"/>
</linearGradient>
<linearGradient id="paint14_linear_230_2733" x1="132.915" y1="87.0148" x2="124.706" y2="78.0174" gradientUnits="userSpaceOnUse">
<stop stop-color="#09005D"/>
<stop offset="1" stop-color="#1A0F91"/>
</linearGradient>
<linearGradient id="paint15_linear_230_2733" x1="135.058" y1="78.6492" x2="140.522" y2="74.2876" gradientUnits="userSpaceOnUse">
<stop stop-color="#FEBBBA"/>
<stop offset="1" stop-color="#FF928E"/>
</linearGradient>
<linearGradient id="paint16_linear_230_2733" x1="209.057" y1="-35.5487" x2="196.06" y2="18.8386" gradientUnits="userSpaceOnUse">
<stop stop-color="#E1473D"/>
<stop offset="1" stop-color="#E9605A"/>
</linearGradient>
<linearGradient id="paint17_linear_230_2733" x1="190.239" y1="121.065" x2="162.93" y2="100.423" gradientUnits="userSpaceOnUse">
<stop stop-color="#FEBBBA"/>
<stop offset="1" stop-color="#FF928E"/>
</linearGradient>
<linearGradient id="paint18_linear_230_2733" x1="190.03" y1="121.342" x2="162.721" y2="100.699" gradientUnits="userSpaceOnUse">
<stop stop-color="#FEBBBA"/>
<stop offset="1" stop-color="#FF928E"/>
</linearGradient>
<linearGradient id="paint19_linear_230_2733" x1="165.259" y1="114.094" x2="160.132" y2="72.1947" gradientUnits="userSpaceOnUse">
<stop stop-color="#FEBBBA"/>
<stop offset="1" stop-color="#FF928E"/>
</linearGradient>
<linearGradient id="paint20_linear_230_2733" x1="158.553" y1="143.333" x2="158.96" y2="154.493" gradientUnits="userSpaceOnUse">
<stop stop-color="#09005D"/>
<stop offset="1" stop-color="#1A0F91"/>
</linearGradient>
<linearGradient id="paint21_linear_230_2733" x1="162.155" y1="143.133" x2="162.484" y2="145.981" gradientUnits="userSpaceOnUse">
<stop stop-color="#FEBBBA"/>
<stop offset="1" stop-color="#FF928E"/>
</linearGradient>
<linearGradient id="paint22_linear_230_2733" x1="208.338" y1="81.074" x2="197.26" y2="93.8703" gradientUnits="userSpaceOnUse">
<stop stop-color="#4F52FF"/>
<stop offset="1" stop-color="#4042E2"/>
</linearGradient>
<linearGradient id="paint23_linear_230_2733" x1="170.214" y1="166.665" x2="180.155" y2="166.352" gradientUnits="userSpaceOnUse">
<stop stop-color="#09005D"/>
<stop offset="1" stop-color="#1A0F91"/>
</linearGradient>
<linearGradient id="paint24_linear_230_2733" x1="171.8" y1="161.531" x2="174.1" y2="162.816" gradientUnits="userSpaceOnUse">
<stop stop-color="#FEBBBA"/>
<stop offset="1" stop-color="#FF928E"/>
</linearGradient>
<linearGradient id="paint25_linear_230_2733" x1="178.242" y1="127.911" x2="178.242" y2="161.557" gradientUnits="userSpaceOnUse">
<stop stop-color="#4F52FF"/>
<stop offset="1" stop-color="#4042E2"/>
</linearGradient>
<linearGradient id="paint26_linear_230_2733" x1="202.946" y1="-37.0089" x2="189.949" y2="17.3786" gradientUnits="userSpaceOnUse">
<stop stop-color="#FF928E"/>
<stop offset="1" stop-color="#FE7062"/>
</linearGradient>
<linearGradient id="paint27_linear_230_2733" x1="182.139" y1="91.9501" x2="184.388" y2="86.2402" gradientUnits="userSpaceOnUse">
<stop stop-color="#FEBBBA"/>
<stop offset="1" stop-color="#FF928E"/>
</linearGradient>
<linearGradient id="paint28_linear_230_2733" x1="185.818" y1="77.2777" x2="184.681" y2="92.7506" gradientUnits="userSpaceOnUse">
<stop stop-color="#FEBBBA"/>
<stop offset="1" stop-color="#FF928E"/>
</linearGradient>
<linearGradient id="paint29_linear_230_2733" x1="187.979" y1="83.6175" x2="180.529" y2="73.8298" gradientUnits="userSpaceOnUse">
<stop stop-color="#09005D"/>
<stop offset="1" stop-color="#1A0F91"/>
</linearGradient>
<linearGradient id="paint30_linear_230_2733" x1="185.762" y1="80.3616" x2="193.165" y2="76.5033" gradientUnits="userSpaceOnUse">
<stop stop-color="#FEBBBA"/>
<stop offset="1" stop-color="#FF928E"/>
</linearGradient>
<linearGradient id="paint31_linear_230_2733" x1="89.6589" y1="176.623" x2="89.6699" y2="171.469" gradientUnits="userSpaceOnUse">
<stop stop-color="#09005D"/>
<stop offset="1" stop-color="#1A0F91"/>
</linearGradient>
<linearGradient id="paint32_linear_230_2733" x1="92.6216" y1="172.861" x2="93.8524" y2="172.957" gradientUnits="userSpaceOnUse">
<stop stop-color="#09005D"/>
<stop offset="1" stop-color="#1A0F91"/>
</linearGradient>
<linearGradient id="paint33_linear_230_2733" x1="96.4717" y1="176.623" x2="96.4827" y2="171.469" gradientUnits="userSpaceOnUse">
<stop stop-color="#09005D"/>
<stop offset="1" stop-color="#1A0F91"/>
</linearGradient>
<linearGradient id="paint34_linear_230_2733" x1="99.7129" y1="172.892" x2="100.944" y2="172.988" gradientUnits="userSpaceOnUse">
<stop stop-color="#09005D"/>
<stop offset="1" stop-color="#1A0F91"/>
</linearGradient>
<linearGradient id="paint35_linear_230_2733" x1="103.284" y1="176.623" x2="103.295" y2="171.469" gradientUnits="userSpaceOnUse">
<stop stop-color="#09005D"/>
<stop offset="1" stop-color="#1A0F91"/>
</linearGradient>
<linearGradient id="paint36_linear_230_2733" x1="106.526" y1="172.906" x2="107.757" y2="173.003" gradientUnits="userSpaceOnUse">
<stop stop-color="#09005D"/>
<stop offset="1" stop-color="#1A0F91"/>
</linearGradient>
<linearGradient id="paint37_linear_230_2733" x1="110.097" y1="176.623" x2="110.108" y2="171.469" gradientUnits="userSpaceOnUse">
<stop stop-color="#09005D"/>
<stop offset="1" stop-color="#1A0F91"/>
</linearGradient>
<linearGradient id="paint38_linear_230_2733" x1="113.338" y1="172.921" x2="114.569" y2="173.017" gradientUnits="userSpaceOnUse">
<stop stop-color="#09005D"/>
<stop offset="1" stop-color="#1A0F91"/>
</linearGradient>
<linearGradient id="paint39_linear_230_2733" x1="116.91" y1="176.623" x2="116.921" y2="171.469" gradientUnits="userSpaceOnUse">
<stop stop-color="#09005D"/>
<stop offset="1" stop-color="#1A0F91"/>
</linearGradient>
<linearGradient id="paint40_linear_230_2733" x1="120.151" y1="172.935" x2="121.382" y2="173.031" gradientUnits="userSpaceOnUse">
<stop stop-color="#09005D"/>
<stop offset="1" stop-color="#1A0F91"/>
</linearGradient>
<linearGradient id="paint41_linear_230_2733" x1="123.722" y1="176.623" x2="123.733" y2="171.469" gradientUnits="userSpaceOnUse">
<stop stop-color="#09005D"/>
<stop offset="1" stop-color="#1A0F91"/>
</linearGradient>
<linearGradient id="paint42_linear_230_2733" x1="126.964" y1="172.949" x2="128.195" y2="173.045" gradientUnits="userSpaceOnUse">
<stop stop-color="#09005D"/>
<stop offset="1" stop-color="#1A0F91"/>
</linearGradient>
<linearGradient id="paint43_linear_230_2733" x1="130.534" y1="176.623" x2="130.545" y2="171.469" gradientUnits="userSpaceOnUse">
<stop stop-color="#09005D"/>
<stop offset="1" stop-color="#1A0F91"/>
</linearGradient>
<linearGradient id="paint44_linear_230_2733" x1="133.776" y1="172.963" x2="135.007" y2="173.059" gradientUnits="userSpaceOnUse">
<stop stop-color="#09005D"/>
<stop offset="1" stop-color="#1A0F91"/>
</linearGradient>
<linearGradient id="paint45_linear_230_2733" x1="137.348" y1="176.623" x2="137.359" y2="171.469" gradientUnits="userSpaceOnUse">
<stop stop-color="#09005D"/>
<stop offset="1" stop-color="#1A0F91"/>
</linearGradient>
<linearGradient id="paint46_linear_230_2733" x1="139.477" y1="172.973" x2="140.708" y2="173.069" gradientUnits="userSpaceOnUse">
<stop stop-color="#09005D"/>
<stop offset="1" stop-color="#1A0F91"/>
</linearGradient>
<linearGradient id="paint47_linear_230_2733" x1="143.47" y1="176.467" x2="143.481" y2="171.313" gradientUnits="userSpaceOnUse">
<stop stop-color="#09005D"/>
<stop offset="1" stop-color="#1A0F91"/>
</linearGradient>
<linearGradient id="paint48_linear_230_2733" x1="146.433" y1="172.818" x2="147.664" y2="172.914" gradientUnits="userSpaceOnUse">
<stop stop-color="#09005D"/>
<stop offset="1" stop-color="#1A0F91"/>
</linearGradient>
<linearGradient id="paint49_linear_230_2733" x1="150.282" y1="176.467" x2="150.293" y2="171.313" gradientUnits="userSpaceOnUse">
<stop stop-color="#09005D"/>
<stop offset="1" stop-color="#1A0F91"/>
</linearGradient>
<linearGradient id="paint50_linear_230_2733" x1="153.523" y1="172.85" x2="154.754" y2="172.946" gradientUnits="userSpaceOnUse">
<stop stop-color="#09005D"/>
<stop offset="1" stop-color="#1A0F91"/>
</linearGradient>
<linearGradient id="paint51_linear_230_2733" x1="157.095" y1="176.467" x2="157.106" y2="171.313" gradientUnits="userSpaceOnUse">
<stop stop-color="#09005D"/>
<stop offset="1" stop-color="#1A0F91"/>
</linearGradient>
<linearGradient id="paint52_linear_230_2733" x1="160.336" y1="172.864" x2="161.567" y2="172.96" gradientUnits="userSpaceOnUse">
<stop stop-color="#09005D"/>
<stop offset="1" stop-color="#1A0F91"/>
</linearGradient>
<linearGradient id="paint53_linear_230_2733" x1="163.907" y1="176.623" x2="163.918" y2="171.47" gradientUnits="userSpaceOnUse">
<stop stop-color="#09005D"/>
<stop offset="1" stop-color="#1A0F91"/>
</linearGradient>
<linearGradient id="paint54_linear_230_2733" x1="167.149" y1="172.878" x2="168.38" y2="172.974" gradientUnits="userSpaceOnUse">
<stop stop-color="#09005D"/>
<stop offset="1" stop-color="#1A0F91"/>
</linearGradient>
<linearGradient id="paint55_linear_230_2733" x1="170.72" y1="176.623" x2="170.731" y2="171.47" gradientUnits="userSpaceOnUse">
<stop stop-color="#09005D"/>
<stop offset="1" stop-color="#1A0F91"/>
</linearGradient>
<linearGradient id="paint56_linear_230_2733" x1="173.961" y1="172.892" x2="175.192" y2="172.988" gradientUnits="userSpaceOnUse">
<stop stop-color="#09005D"/>
<stop offset="1" stop-color="#1A0F91"/>
</linearGradient>
<linearGradient id="paint57_linear_230_2733" x1="177.533" y1="176.623" x2="177.544" y2="171.47" gradientUnits="userSpaceOnUse">
<stop stop-color="#09005D"/>
<stop offset="1" stop-color="#1A0F91"/>
</linearGradient>
<linearGradient id="paint58_linear_230_2733" x1="180.774" y1="172.906" x2="182.005" y2="173.002" gradientUnits="userSpaceOnUse">
<stop stop-color="#09005D"/>
<stop offset="1" stop-color="#1A0F91"/>
</linearGradient>
<linearGradient id="paint59_linear_230_2733" x1="184.345" y1="176.623" x2="184.356" y2="171.47" gradientUnits="userSpaceOnUse">
<stop stop-color="#09005D"/>
<stop offset="1" stop-color="#1A0F91"/>
</linearGradient>
<linearGradient id="paint60_linear_230_2733" x1="187.587" y1="172.92" x2="188.818" y2="173.016" gradientUnits="userSpaceOnUse">
<stop stop-color="#09005D"/>
<stop offset="1" stop-color="#1A0F91"/>
</linearGradient>
<linearGradient id="paint61_linear_230_2733" x1="191.158" y1="176.623" x2="191.169" y2="171.47" gradientUnits="userSpaceOnUse">
<stop stop-color="#09005D"/>
<stop offset="1" stop-color="#1A0F91"/>
</linearGradient>
<linearGradient id="paint62_linear_230_2733" x1="193.287" y1="172.93" x2="194.518" y2="173.026" gradientUnits="userSpaceOnUse">
<stop stop-color="#09005D"/>
<stop offset="1" stop-color="#1A0F91"/>
</linearGradient>
<linearGradient id="paint63_linear_230_2733" x1="197.137" y1="176.154" x2="197.148" y2="171.001" gradientUnits="userSpaceOnUse">
<stop stop-color="#09005D"/>
<stop offset="1" stop-color="#1A0F91"/>
</linearGradient>
<linearGradient id="paint64_linear_230_2733" x1="200.101" y1="172.465" x2="201.331" y2="172.561" gradientUnits="userSpaceOnUse">
<stop stop-color="#09005D"/>
<stop offset="1" stop-color="#1A0F91"/>
</linearGradient>
<linearGradient id="paint65_linear_230_2733" x1="203.95" y1="176.154" x2="203.961" y2="171.001" gradientUnits="userSpaceOnUse">
<stop stop-color="#09005D"/>
<stop offset="1" stop-color="#1A0F91"/>
</linearGradient>
<linearGradient id="paint66_linear_230_2733" x1="207.191" y1="172.496" x2="208.422" y2="172.593" gradientUnits="userSpaceOnUse">
<stop stop-color="#09005D"/>
<stop offset="1" stop-color="#1A0F91"/>
</linearGradient>
<linearGradient id="paint67_linear_230_2733" x1="210.763" y1="176.154" x2="210.774" y2="171.001" gradientUnits="userSpaceOnUse">
<stop stop-color="#09005D"/>
<stop offset="1" stop-color="#1A0F91"/>
</linearGradient>
<linearGradient id="paint68_linear_230_2733" x1="214.004" y1="172.511" x2="215.235" y2="172.607" gradientUnits="userSpaceOnUse">
<stop stop-color="#09005D"/>
<stop offset="1" stop-color="#1A0F91"/>
</linearGradient>
<linearGradient id="paint69_linear_230_2733" x1="217.575" y1="176.154" x2="217.586" y2="171.001" gradientUnits="userSpaceOnUse">
<stop stop-color="#09005D"/>
<stop offset="1" stop-color="#1A0F91"/>
</linearGradient>
<linearGradient id="paint70_linear_230_2733" x1="220.817" y1="172.525" x2="222.048" y2="172.621" gradientUnits="userSpaceOnUse">
<stop stop-color="#09005D"/>
<stop offset="1" stop-color="#1A0F91"/>
</linearGradient>
<linearGradient id="paint71_linear_230_2733" x1="224.388" y1="176.154" x2="224.399" y2="171.001" gradientUnits="userSpaceOnUse">
<stop stop-color="#09005D"/>
<stop offset="1" stop-color="#1A0F91"/>
</linearGradient>
<linearGradient id="paint72_linear_230_2733" x1="227.629" y1="172.539" x2="228.86" y2="172.635" gradientUnits="userSpaceOnUse">
<stop stop-color="#09005D"/>
<stop offset="1" stop-color="#1A0F91"/>
</linearGradient>
<linearGradient id="paint73_linear_230_2733" x1="231.201" y1="176.154" x2="231.212" y2="171.001" gradientUnits="userSpaceOnUse">
<stop stop-color="#09005D"/>
<stop offset="1" stop-color="#1A0F91"/>
</linearGradient>
<linearGradient id="paint74_linear_230_2733" x1="234.442" y1="172.553" x2="235.673" y2="172.649" gradientUnits="userSpaceOnUse">
<stop stop-color="#09005D"/>
<stop offset="1" stop-color="#1A0F91"/>
</linearGradient>
<linearGradient id="paint75_linear_230_2733" x1="238.013" y1="176.311" x2="238.024" y2="171.157" gradientUnits="userSpaceOnUse">
<stop stop-color="#09005D"/>
<stop offset="1" stop-color="#1A0F91"/>
</linearGradient>
<linearGradient id="paint76_linear_230_2733" x1="241.255" y1="172.568" x2="242.486" y2="172.664" gradientUnits="userSpaceOnUse">
<stop stop-color="#09005D"/>
<stop offset="1" stop-color="#1A0F91"/>
</linearGradient>
<linearGradient id="paint77_linear_230_2733" x1="244.826" y1="176.311" x2="244.837" y2="171.157" gradientUnits="userSpaceOnUse">
<stop stop-color="#09005D"/>
<stop offset="1" stop-color="#1A0F91"/>
</linearGradient>
<linearGradient id="paint78_linear_230_2733" x1="246.955" y1="172.577" x2="248.186" y2="172.673" gradientUnits="userSpaceOnUse">
<stop stop-color="#09005D"/>
<stop offset="1" stop-color="#1A0F91"/>
</linearGradient>
<linearGradient id="paint79_linear_230_2733" x1="148.022" y1="182.324" x2="163.354" y2="186.439" gradientUnits="userSpaceOnUse">
<stop stop-color="#CB236D"/>
<stop offset="0.4287" stop-color="#C9236D"/>
<stop offset="0.5831" stop-color="#C2236D"/>
<stop offset="0.6932" stop-color="#B7236D"/>
<stop offset="0.7821" stop-color="#A6236D"/>
<stop offset="0.8583" stop-color="#90236D"/>
<stop offset="0.9258" stop-color="#74246D"/>
<stop offset="0.9854" stop-color="#55246D"/>
<stop offset="1" stop-color="#4C246D"/>
</linearGradient>
<linearGradient id="paint80_linear_230_2733" x1="150.333" y1="169.437" x2="140.12" y2="179.222" gradientUnits="userSpaceOnUse">
<stop stop-color="#CB236D"/>
<stop offset="1" stop-color="#4C246D"/>
</linearGradient>
<linearGradient id="paint81_linear_230_2733" x1="229.729" y1="86.2588" x2="203.679" y2="62.5052" gradientUnits="userSpaceOnUse">
<stop stop-color="#FEBBBA"/>
<stop offset="1" stop-color="#FF928E"/>
</linearGradient>
<linearGradient id="paint82_linear_230_2733" x1="287.269" y1="112.146" x2="239.769" y2="84.4466" gradientUnits="userSpaceOnUse">
<stop stop-color="#E1473D"/>
<stop offset="1" stop-color="#E9605A"/>
</linearGradient>
<linearGradient id="paint83_linear_230_2733" x1="229.356" y1="86.589" x2="203.789" y2="63.2757" gradientUnits="userSpaceOnUse">
<stop stop-color="#FEBBBA"/>
<stop offset="1" stop-color="#FF928E"/>
</linearGradient>
<linearGradient id="paint84_linear_230_2733" x1="232.709" y1="128.688" x2="242.653" y2="128.745" gradientUnits="userSpaceOnUse">
<stop stop-color="#09005D"/>
<stop offset="1" stop-color="#1A0F91"/>
</linearGradient>
<linearGradient id="paint85_linear_230_2733" x1="234.635" y1="123.662" x2="236.822" y2="125.18" gradientUnits="userSpaceOnUse">
<stop stop-color="#FEBBBA"/>
<stop offset="1" stop-color="#FF928E"/>
</linearGradient>
<linearGradient id="paint86_linear_230_2733" x1="302.995" y1="91.6201" x2="231.096" y2="102.978" gradientUnits="userSpaceOnUse">
<stop stop-color="#4F52FF"/>
<stop offset="1" stop-color="#4042E2"/>
</linearGradient>
<linearGradient id="paint87_linear_230_2733" x1="198.551" y1="135.504" x2="209.016" y2="140.68" gradientUnits="userSpaceOnUse">
<stop stop-color="#09005D"/>
<stop offset="1" stop-color="#1A0F91"/>
</linearGradient>
<linearGradient id="paint88_linear_230_2733" x1="201.233" y1="132.052" x2="203.482" y2="133.448" gradientUnits="userSpaceOnUse">
<stop stop-color="#FEBBBA"/>
<stop offset="1" stop-color="#FF928E"/>
</linearGradient>
<linearGradient id="paint89_linear_230_2733" x1="222.636" y1="116.727" x2="205.554" y2="97.8761" gradientUnits="userSpaceOnUse">
<stop stop-color="#4F52FF"/>
<stop offset="1" stop-color="#4042E2"/>
</linearGradient>
<linearGradient id="paint90_linear_230_2733" x1="249.827" y1="-25.8058" x2="236.83" y2="28.5814" gradientUnits="userSpaceOnUse">
<stop stop-color="#FF928E"/>
<stop offset="1" stop-color="#FE7062"/>
</linearGradient>
<linearGradient id="paint91_linear_230_2733" x1="234.51" y1="63.119" x2="236.759" y2="57.4091" gradientUnits="userSpaceOnUse">
<stop stop-color="#FEBBBA"/>
<stop offset="1" stop-color="#FF928E"/>
</linearGradient>
<linearGradient id="paint92_linear_230_2733" x1="253.249" y1="91.3276" x2="229.691" y2="83.2239" gradientUnits="userSpaceOnUse">
<stop stop-color="#FEBBBA"/>
<stop offset="1" stop-color="#FF928E"/>
</linearGradient>
<linearGradient id="paint93_linear_230_2733" x1="233.18" y1="73.2123" x2="238.896" y2="86.219" gradientUnits="userSpaceOnUse">
<stop stop-color="#FF928E"/>
<stop offset="1" stop-color="#FE7062"/>
</linearGradient>
<linearGradient id="paint94_linear_230_2733" x1="239.118" y1="48.5704" x2="235.358" y2="63.5327" gradientUnits="userSpaceOnUse">
<stop stop-color="#FEBBBA"/>
<stop offset="1" stop-color="#FF928E"/>
</linearGradient>
<linearGradient id="paint95_linear_230_2733" x1="240.383" y1="55.2083" x2="234.53" y2="44.1615" gradientUnits="userSpaceOnUse">
<stop stop-color="#09005D"/>
<stop offset="1" stop-color="#1A0F91"/>
</linearGradient>
<linearGradient id="paint96_linear_230_2733" x1="235.951" y1="44.2284" x2="238.096" y2="31.4326" gradientUnits="userSpaceOnUse">
<stop stop-color="#FEBBBA"/>
<stop offset="1" stop-color="#FF928E"/>
</linearGradient>
<linearGradient id="paint97_linear_230_2733" x1="52.3625" y1="204.622" x2="47.2508" y2="213.573" gradientUnits="userSpaceOnUse">
<stop stop-color="#09005D"/>
<stop offset="1" stop-color="#1A0F91"/>
</linearGradient>
<linearGradient id="paint98_linear_230_2733" x1="44.2432" y1="208.376" x2="48.4967" y2="208.376" gradientUnits="userSpaceOnUse">
<stop stop-color="#FEBBBA"/>
<stop offset="1" stop-color="#FF928E"/>
</linearGradient>
<linearGradient id="paint99_linear_230_2733" x1="52.2343" y1="141.185" x2="37.2912" y2="203.08" gradientUnits="userSpaceOnUse">
<stop stop-color="#4F52FF"/>
<stop offset="1" stop-color="#4042E2"/>
</linearGradient>
<linearGradient id="paint100_linear_230_2733" x1="49.8846" y1="214.158" x2="32.8552" y2="233.985" gradientUnits="userSpaceOnUse">
<stop stop-color="#09005D"/>
<stop offset="1" stop-color="#1A0F91"/>
</linearGradient>
<linearGradient id="paint101_linear_230_2733" x1="42.4765" y1="218.867" x2="53.914" y2="218.867" gradientUnits="userSpaceOnUse">
<stop stop-color="#4F52FF"/>
<stop offset="1" stop-color="#4042E2"/>
</linearGradient>
<linearGradient id="paint102_linear_230_2733" x1="41.1675" y1="212.784" x2="45.1595" y2="212.784" gradientUnits="userSpaceOnUse">
<stop stop-color="#FEBBBA"/>
<stop offset="1" stop-color="#FF928E"/>
</linearGradient>
<linearGradient id="paint103_linear_230_2733" x1="42.558" y1="138.849" x2="27.615" y2="200.744" gradientUnits="userSpaceOnUse">
<stop stop-color="#4F52FF"/>
<stop offset="1" stop-color="#4042E2"/>
</linearGradient>
<linearGradient id="paint104_linear_230_2733" x1="92.5736" y1="-74.377" x2="79.5766" y2="-19.9896" gradientUnits="userSpaceOnUse">
<stop stop-color="#E1473D"/>
<stop offset="1" stop-color="#E9605A"/>
</linearGradient>
<linearGradient id="paint105_linear_230_2733" x1="53.3653" y1="161.081" x2="67.2908" y2="161.081" gradientUnits="userSpaceOnUse">
<stop stop-color="#FEBBBA"/>
<stop offset="1" stop-color="#FF928E"/>
</linearGradient>
<linearGradient id="paint106_linear_230_2733" x1="80.3484" y1="-77.2984" x2="67.3515" y2="-22.911" gradientUnits="userSpaceOnUse">
<stop stop-color="#FF928E"/>
<stop offset="1" stop-color="#FE7062"/>
</linearGradient>
<linearGradient id="paint107_linear_230_2733" x1="40.0781" y1="137.998" x2="49.3176" y2="137.998" gradientUnits="userSpaceOnUse">
<stop stop-color="#FEBBBA"/>
<stop offset="1" stop-color="#FF928E"/>
</linearGradient>
<linearGradient id="paint108_linear_230_2733" x1="66.3644" y1="-80.64" x2="53.3675" y2="-26.2525" gradientUnits="userSpaceOnUse">
<stop stop-color="#FF928E"/>
<stop offset="1" stop-color="#FE7062"/>
</linearGradient>
<linearGradient id="paint109_linear_230_2733" x1="70.6739" y1="-79.6105" x2="57.6769" y2="-25.223" gradientUnits="userSpaceOnUse">
<stop stop-color="#E1473D"/>
<stop offset="1" stop-color="#E9605A"/>
</linearGradient>
<linearGradient id="paint110_linear_230_2733" x1="10.7198" y1="164.04" x2="55.8879" y2="161.167" gradientUnits="userSpaceOnUse">
<stop stop-color="#FEBBBA"/>
<stop offset="1" stop-color="#FF928E"/>
</linearGradient>
<linearGradient id="paint111_linear_230_2733" x1="52.4731" y1="131.574" x2="38.403" y2="134.848" gradientUnits="userSpaceOnUse">
<stop stop-color="#FEBBBA"/>
<stop offset="1" stop-color="#FF928E"/>
</linearGradient>
<linearGradient id="paint112_linear_230_2733" x1="47.7555" y1="120.964" x2="53.1747" y2="138.895" gradientUnits="userSpaceOnUse">
<stop stop-color="#09005D"/>
<stop offset="1" stop-color="#1A0F91"/>
</linearGradient>
<linearGradient id="paint113_linear_230_2733" x1="51.8848" y1="129.046" x2="37.8147" y2="132.32" gradientUnits="userSpaceOnUse">
<stop stop-color="#FEBBBA"/>
<stop offset="1" stop-color="#FF928E"/>
</linearGradient>
<linearGradient id="paint114_linear_230_2733" x1="38.4303" y1="160.446" x2="56.6424" y2="165.764" gradientUnits="userSpaceOnUse">
<stop stop-color="#09005D"/>
<stop offset="1" stop-color="#1A0F91"/>
</linearGradient>
<linearGradient id="paint115_linear_230_2733" x1="62.9444" y1="147.304" x2="77.3743" y2="160.883" gradientUnits="userSpaceOnUse">
<stop stop-color="#09005D"/>
<stop offset="1" stop-color="#1A0F91"/>
</linearGradient>
<linearGradient id="paint116_linear_230_2733" x1="212.233" y1="164.28" x2="224.582" y2="209.844" gradientUnits="userSpaceOnUse">
<stop stop-color="#4F52FF"/>
<stop offset="1" stop-color="#4042E2"/>
</linearGradient>
<linearGradient id="paint117_linear_230_2733" x1="219.642" y1="152.453" x2="232.034" y2="206.555" gradientUnits="userSpaceOnUse">
<stop stop-color="#4F52FF"/>
<stop offset="1" stop-color="#4042E2"/>
</linearGradient>
<linearGradient id="paint118_linear_230_2733" x1="224.789" y1="168.076" x2="225.357" y2="215.79" gradientUnits="userSpaceOnUse">
<stop stop-color="#4F52FF"/>
<stop offset="1" stop-color="#4042E2"/>
</linearGradient>
</defs>
</svg>
