<svg width="659" height="887" viewBox="0 0 659 887" fill="none" xmlns="http://www.w3.org/2000/svg">
<path opacity="0.12" fill-rule="evenodd" clip-rule="evenodd" d="M454 662.5V582.04H907V573.1H454V537.34H907V528.4H454L454 492.64H907V483.7H454V447.94H907V439H454V-8H444.94V439H408.7V-8L399.64 -8V439L363.4 439V-8H354.34V439H318.1V-8H309.04V439H227.5C102.405 439 1 539.062 1 662.5C1 785.938 102.405 886 227.5 886C352.594 886 454 785.938 454 662.5ZM408.7 483.7V447.94H444.94V483.7H408.7ZM408.7 492.64L408.7 528.4H444.94L444.94 492.64H408.7ZM408.7 537.34V573.1H444.94V537.34H408.7ZM408.7 582.04H444.94V662.5C444.94 781 347.591 877.06 227.5 877.06C107.409 877.06 10.0599 781 10.0599 662.5C10.0599 544 107.409 447.94 227.5 447.94H309.04V483.7H227.5C127.424 483.7 46.2999 563.75 46.2999 662.5C46.2999 761.25 127.424 841.3 227.5 841.3C327.576 841.3 408.7 761.25 408.7 662.5V582.04ZM318.1 483.7V447.94H354.34V483.7H318.1ZM309.04 492.64H227.5C132.428 492.64 55.36 568.687 55.36 662.5C55.36 756.313 132.428 832.36 227.5 832.36C322.572 832.36 399.64 756.313 399.64 662.5V582.04H363.4V662.5C363.4 736.563 302.557 796.6 227.5 796.6C152.443 796.6 91.6 736.563 91.6 662.5C91.6 588.437 152.443 528.4 227.5 528.4H309.04V492.64ZM363.4 537.34V573.1H399.64V537.34H363.4ZM399.64 528.4H363.4V492.64L399.64 492.64L399.64 528.4ZM354.34 528.4H318.1V492.64H354.34V528.4ZM227.5 537.34H309.04V573.1H227.5C177.462 573.1 136.9 613.125 136.9 662.5C136.9 711.875 177.462 751.9 227.5 751.9C277.538 751.9 318.1 711.875 318.1 662.5V582.04H354.34V662.5C354.34 731.625 297.553 787.66 227.5 787.66C157.447 787.66 100.66 731.625 100.66 662.5C100.66 593.375 157.447 537.34 227.5 537.34ZM227.5 582.04C182.466 582.04 145.96 618.062 145.96 662.5C145.96 706.938 182.466 742.96 227.5 742.96C272.534 742.96 309.04 706.938 309.04 662.5V582.04H227.5ZM318.1 573.1H354.34V537.34H318.1V573.1ZM363.4 483.7V447.94L399.64 447.94V483.7L363.4 483.7Z" fill="#4C2E84" stroke="#EFF7EB"/>
</svg>
