<svg width="1640" height="253" viewBox="0 0 1640 253" fill="none" xmlns="http://www.w3.org/2000/svg">
<g clip-path="url(#clip0_121_1379)">
<path d="M0 16.8887C0 8.05212 7.16344 0.888672 16 0.888672H1624C1632.84 0.888672 1640 8.05212 1640 16.8887V236.889C1640 245.725 1632.84 252.889 1624 252.889H16C7.16343 252.889 0 245.725 0 236.889V16.8887Z" fill="#F4EDFF" fill-opacity="0.32"/>
<g opacity="0.4" filter="url(#filter0_f_121_1379)">
<path d="M1114.04 -53.3669C1038.23 -125.596 1003.36 -255.795 899.25 -265.938C792.586 -276.331 720.896 -168.051 638.204 -99.7285C638.004 -99.5632 637.804 -99.399 637.604 -99.2336L898.755 161.918L1114.04 -53.3669Z" fill="#9E77ED"/>
<path d="M1114.04 -53.3667L898.755 161.918H1348.33C1330.14 92.3516 1270.1 54.3369 1208.39 15.2628C1175.37 -5.64553 1141.87 -26.8563 1114.04 -53.3667Z" fill="#CCBCEA"/>
<path d="M898.755 161.918L637.604 -99.2334C611.592 -77.8136 582.234 -58.2542 552.898 -38.71C471.816 15.3077 390.918 69.2039 381.404 161.918H898.755Z" fill="#553888"/>
<path d="M381.404 161.917C368.054 292.003 478.246 399.683 578.344 483.561L898.755 161.917H381.404Z" fill="#E069F5"/>
<path d="M1266.57 530.08C1360.45 439.368 1381.38 288.348 1348.33 161.917H898.755L1266.57 530.08Z" fill="#C5A3F8"/>
<path d="M898.755 161.917L578.344 483.561C681.85 570.295 784.246 587.802 919.532 597.252L919.57 597.254L898.755 161.917Z" fill="#7733FF"/>
<path d="M1266.57 530.08L898.755 161.917L919.57 597.254C1043.27 605.897 1178.34 615.332 1266.57 530.08Z" fill="#C385FB"/>
</g>
</g>
<defs>
<filter id="filter0_f_121_1379" x="80.2998" y="-566.635" width="1582.7" height="1469.31" filterUnits="userSpaceOnUse" color-interpolation-filters="sRGB">
<feFlood flood-opacity="0" result="BackgroundImageFix"/>
<feBlend mode="normal" in="SourceGraphic" in2="BackgroundImageFix" result="shape"/>
<feGaussianBlur stdDeviation="150" result="effect1_foregroundBlur_121_1379"/>
</filter>
<clipPath id="clip0_121_1379">
<rect width="1640" height="252" fill="white" transform="translate(0 0.888672)"/>
</clipPath>
</defs>
</svg>
